<svg width="83" height="83" viewBox="0 0 83 83" fill="none" xmlns="http://www.w3.org/2000/svg">
<rect width="83" height="83" fill="white"/>
<path d="M67.4699 16.6242C63.555 16.9241 57.7595 18.5452 51.8426 20.985C47.5304 22.7682 42.197 25.3781 37.4959 28.0124C36.4584 28.596 36.2719 28.6771 36.1179 28.596C36.0288 28.5474 35.3479 28.1502 34.6103 27.7206C33.8727 27.2829 33.1108 26.8452 32.9082 26.7479L32.5434 26.5615L32.9082 26.4075C33.1108 26.3184 33.4918 26.2049 33.7592 26.1481L34.2456 26.0428L33.8403 25.986C33.2324 25.8888 32.4381 25.5646 31.976 25.216C31.2466 24.6648 30.7683 23.7895 30.5171 22.5331C30.4522 22.2089 30.4036 22.0954 30.4036 22.2494C30.3793 22.8816 29.9578 23.9516 29.5201 24.4784L29.285 24.754L27.9963 24.1785C18.4723 19.8907 12.4905 18.837 10.148 21.0255C8.66471 22.4115 8.73766 24.7783 10.3669 28.1664C11.8421 31.2384 15.0356 35.51 18.7398 39.3601L19.4531 40.0977L18.7803 40.6569C17.4835 41.7431 15.7489 43.3642 14.3466 44.7907C11.0964 48.1221 9.25641 50.8131 8.61608 53.188C8.41344 53.9337 8.43776 55.109 8.65661 55.6845C9.69411 58.3269 13.7712 59.1536 20.0853 57.9864C23.7166 57.3218 28.5069 55.725 33.435 53.5446C34.0997 53.2528 34.6752 53.0097 34.7157 53.0097C34.7481 53.0097 35.1372 53.2609 35.5668 53.5608C37.0582 54.6146 37.739 55.0766 39.0197 55.9033C40.2842 56.722 40.3004 56.7382 40.0734 56.8273C39.6925 56.9651 38.963 57.1435 38.4523 57.2083L37.9741 57.2731L38.5577 57.3299C39.3034 57.4028 40.3409 57.7271 41.0136 58.0918C41.3379 58.2782 41.7999 58.643 42.2295 59.0807C42.7969 59.648 42.9914 59.9155 43.3075 60.5478C43.729 61.3988 44.0856 62.6714 44.1018 63.3766L44.118 63.8305L44.191 63.3847C44.3531 62.3634 44.6044 61.4475 44.8637 60.9125C45.3501 59.9317 45.1718 59.9398 46.8172 60.8396C47.6115 61.2691 49.2812 62.1283 50.5295 62.7362C55.7818 65.3057 60.1669 66.8862 63.8305 67.5266C65.2247 67.7697 67.17 67.794 68.1264 67.5752C70.0231 67.1375 71.0768 66.1 71.3362 64.4222C71.7658 61.6825 69.4071 57.0219 64.8437 51.5912C62.485 48.7867 58.5701 44.9609 55.1739 42.1564C54.8335 41.8728 54.5498 41.6134 54.5498 41.581C54.5498 41.5566 54.9794 41.2243 55.5062 40.8515C57.2165 39.6356 60.2074 37.3742 61.6259 36.2395C68.167 30.9871 71.9522 26.9506 73.6057 23.4652C74.8054 20.9363 74.7567 19.218 73.4355 17.9616C72.6331 17.1916 71.5226 16.7863 69.78 16.6242C68.7749 16.527 68.6776 16.527 67.4699 16.6242ZM65.8245 18.8046C68.0616 19.0315 69.4152 19.7691 70.0718 21.0984C70.7283 22.4439 70.55 23.9354 69.4638 26.0995C68.3372 28.3366 66.8215 30.29 64.0818 33.0378C61.6178 35.4938 59.1942 37.5769 55.9277 40.0409C54.2256 41.3135 54.2012 41.3297 54.0229 41.1919C53.9176 41.1189 53.1151 40.4867 52.2316 39.7896C47.8141 36.3367 41.7756 32.0976 37.7471 29.6254C37.0987 29.2201 36.5637 28.8716 36.5556 28.8473C36.5556 28.7419 41.038 26.3508 43.04 25.3943C50.724 21.7063 58.2459 19.2423 63.1011 18.8127C64.2682 18.7154 64.8762 18.7154 65.8245 18.8046ZM19.8584 22.6628C21.0742 22.833 23.1087 23.3437 24.7784 23.8948C26.359 24.4217 28.4502 25.216 28.4502 25.2971C28.4502 25.3862 27.518 25.7672 27.0317 25.8807L26.5616 25.986L27.21 26.1238C28.6285 26.4318 29.6741 27.4207 30.1037 28.8473C30.1766 29.0904 30.2334 29.439 30.2415 29.6173C30.2496 29.901 30.2739 29.8523 30.4198 29.2606C30.6305 28.4339 31.0196 27.753 31.5627 27.2667C31.7734 27.0722 31.976 26.9101 32.0085 26.9101C32.1625 26.9101 35.8261 28.8635 35.818 28.9364C35.818 28.9607 35.4695 29.1715 35.0318 29.4146C31.4735 31.4005 24.8757 35.8018 21.4957 38.4604C20.8148 38.9953 20.1826 39.4816 20.1015 39.5384C19.9718 39.6356 19.8908 39.5627 19.2829 38.8494C16.754 35.8828 15.0761 33.3863 13.8441 30.7602C12.5959 28.0854 12.3851 25.9131 13.2362 24.4622C13.5037 23.9921 14.2251 23.3274 14.7195 23.0762C15.911 22.4764 17.5645 22.3386 19.8584 22.6628ZM36.4178 29.2688C36.6043 29.366 37.4878 29.8848 38.3794 30.4197C42.7482 33.0297 49.0624 37.5039 53.0341 40.7947L53.9013 41.5161L53.0341 42.1402C49.5649 44.6124 45.7391 46.9954 41.8242 49.119C40.3652 49.9053 36.8231 51.6561 35.6884 52.1505L34.7805 52.5396L34.2294 52.1505C32.3084 50.7969 28.6771 47.887 26.2617 45.7634C23.749 43.5506 20.5068 40.4219 20.5068 40.1949C20.5068 40.122 21.9253 38.8737 23.214 37.82C26.1239 35.4289 30.436 32.438 34.2375 30.1604C35.2182 29.5768 36.0288 29.0985 36.045 29.0985C36.0612 29.0985 36.2314 29.1796 36.4178 29.2688ZM22.6142 43.1291C25.5403 45.7796 29.6984 49.2082 32.973 51.6642L34.3753 52.7179L33.1757 53.188C31.4573 53.8688 28.1341 54.9712 26.667 55.3521C25.2323 55.725 23.7328 56.0249 22.3305 56.2275C20.9688 56.4221 18.0184 56.4221 16.9404 56.2275C14.833 55.8466 13.5523 55.0604 12.9201 53.7797C12.2554 52.4342 12.4581 50.7969 13.5442 48.6084C14.6303 46.4361 16.0812 44.5476 18.6344 41.97L19.98 40.6083L20.831 41.4432C21.3011 41.9052 22.1036 42.6671 22.6142 43.1291ZM55.9358 43.3317C57.5245 44.7826 59.948 47.271 61.2125 48.7381C64.6816 52.7746 66.8701 56.5437 67.4699 59.5103C68.0049 62.1445 66.8863 64.0736 64.4385 64.7383C63.5712 64.9733 61.0261 64.9328 59.4536 64.6491C55.7656 64.0007 51.0401 62.2742 46.7766 60.0371L45.7797 59.5103L46.3714 59.0158C47.3683 58.1891 48.803 57.5649 50.0512 57.4028L50.5376 57.338L49.8729 57.2813C47.4494 57.0624 45.65 55.6034 44.8313 53.1799C44.6044 52.5152 44.4179 51.6317 44.4179 51.2021C44.4179 50.5861 44.2802 50.6186 44.2315 51.2427C44.1586 52.0856 43.9073 52.9205 43.4372 53.8932C43.0805 54.6145 42.9265 54.8334 42.3592 55.3927C41.9863 55.7655 41.5 56.1546 41.2406 56.2924L40.7786 56.5355L40.5111 56.3815C39.3277 55.6926 36.0531 53.5284 35.3803 52.9772L35.1372 52.7746L35.4614 52.6449C36.9042 52.037 42.732 48.9731 45.1961 47.5304C47.7574 46.0309 51.4859 43.6641 53.334 42.3672L54.185 41.7674L54.4687 42.0105C54.6227 42.1402 55.2874 42.74 55.9358 43.3317Z" fill="black"/>
<path d="M7.59473 35.8038C7.59473 35.5042 7.8376 35.2613 8.13721 35.2613H73.2353C73.5349 35.2613 73.7777 35.5042 73.7777 35.8038V47.196C73.7777 47.4956 73.5349 47.7385 73.2353 47.7385H8.13721C7.8376 47.7385 7.59473 47.4956 7.59473 47.196V35.8038Z" fill="white"/>
<path d="M15.4065 44.1233C15.4065 44.702 15.2908 45.1996 15.0593 45.6163C14.8278 46.0213 14.5269 46.3511 14.1566 46.6058C13.7978 46.8604 13.387 47.0455 12.9241 47.1613C12.4727 47.277 12.0214 47.3349 11.57 47.3349C11.1071 47.3349 10.7079 47.2886 10.3722 47.196C10.0366 47.1034 9.72994 47.0166 9.45219 46.9356C9.26702 46.8777 9.09921 46.8314 8.94877 46.7967C8.79832 46.7504 8.64787 46.7273 8.49742 46.7273V44.7483H8.67101C8.67101 45.1881 8.78096 45.541 9.00084 45.8072C9.2323 46.0618 9.49848 46.2586 9.79938 46.3974C10.1003 46.5363 10.4012 46.6289 10.7021 46.6752C11.003 46.7099 11.2229 46.7273 11.3617 46.7273C11.8594 46.7273 12.2876 46.6578 12.6463 46.519C13.0051 46.3685 13.3002 46.1776 13.5317 45.9461C13.7631 45.7031 13.9309 45.4369 14.0351 45.1476C14.1508 44.8582 14.2087 44.5631 14.2087 44.2622C14.2087 43.8803 14.1277 43.5621 13.9657 43.3075C13.8036 43.0413 13.5895 42.8098 13.3234 42.6131C13.0687 42.4163 12.7736 42.2485 12.438 42.1096C12.1024 41.9708 11.761 41.8319 11.4138 41.693C11.0203 41.5426 10.6326 41.3863 10.2507 41.2243C9.86882 41.0623 9.52742 40.8656 9.22652 40.6341C8.92562 40.3911 8.68259 40.1075 8.49742 39.7835C8.31225 39.4479 8.21967 39.037 8.21967 38.551C8.21967 38.0417 8.31804 37.602 8.51478 37.2316C8.71152 36.8497 8.97191 36.5373 9.29596 36.2942C9.63157 36.0512 10.0077 35.8718 10.4243 35.7561C10.8525 35.6288 11.2865 35.5651 11.7263 35.5651C12.0272 35.5651 12.3107 35.5883 12.5769 35.6346C12.8431 35.6693 13.0977 35.7156 13.3407 35.7734C13.5375 35.8197 13.7284 35.8602 13.9136 35.895C14.0987 35.9181 14.2781 35.9297 14.4517 35.9297V37.7177H14.2781C14.255 37.1159 14.0177 36.7109 13.5664 36.5025C13.115 36.2827 12.4901 36.1727 11.6916 36.1727C11.2286 36.1727 10.8467 36.2537 10.5458 36.4157C10.2565 36.5662 10.0251 36.7571 9.85146 36.9886C9.67786 37.2085 9.55635 37.4515 9.48691 37.7177C9.42904 37.9723 9.40011 38.198 9.40011 38.3947C9.40011 38.7188 9.46955 38.9965 9.60843 39.228C9.75887 39.4594 9.95562 39.662 10.1986 39.8356C10.4417 40.0092 10.7194 40.1654 11.0319 40.3043C11.3559 40.4431 11.6916 40.5762 12.0388 40.7035C12.4322 40.854 12.8315 41.016 13.2366 41.1896C13.6416 41.3632 14.0004 41.5773 14.3128 41.8319C14.6369 42.0865 14.8973 42.399 15.094 42.7693C15.3023 43.1396 15.4065 43.591 15.4065 44.1233Z" fill="black"/>
<path d="M22.6359 47.0224H22.7227C23.0005 47.0224 23.1393 46.8951 23.1393 46.6405C23.1393 46.5479 23.122 46.4495 23.0872 46.3454L21.5249 42.127H18.487L16.9767 46.2759C16.942 46.3685 16.9246 46.4553 16.9246 46.5363C16.9246 46.6868 16.9651 46.8083 17.0461 46.9009C17.1272 46.9819 17.214 47.0224 17.3065 47.0224H17.3933V47.196H15.4664V47.0224H15.5532C15.7037 47.0224 15.8483 46.9356 15.9872 46.762C16.1377 46.5768 16.2592 46.3627 16.3518 46.1197L20.3271 35.5304L24.2156 46.0155C24.2966 46.247 24.4066 46.4727 24.5454 46.6926C24.6959 46.9124 24.8868 47.0224 25.1183 47.0224H25.2051V47.196H22.6359V47.0224ZM18.6606 41.5368H21.3339L19.9973 37.9087L18.6606 41.5368Z" fill="black"/>
<path d="M29.0254 47.0224H29.1122V47.196H26.6472V47.0224H26.734C26.8265 47.0224 26.9076 46.9877 26.977 46.9182C27.0464 46.8488 27.1043 46.7678 27.1506 46.6752C27.2085 46.5826 27.249 46.4842 27.2721 46.3801C27.2952 46.2644 27.3068 46.1602 27.3068 46.0676V36.381H25.2931C25.108 36.381 24.9459 36.4215 24.8071 36.5025C24.6682 36.5835 24.5525 36.6877 24.4599 36.815C24.3673 36.9307 24.2978 37.0638 24.2516 37.2143C24.2053 37.3532 24.1821 37.492 24.1821 37.6309H24.0085V35.7387H31.8029V37.6309H31.6293C31.6293 37.492 31.6062 37.3532 31.5599 37.2143C31.5136 37.0638 31.4442 36.9307 31.3516 36.815C31.259 36.6877 31.1433 36.5835 31.0044 36.5025C30.8655 36.4215 30.7035 36.381 30.5183 36.381H28.4699V46.0676C28.4699 46.1602 28.4815 46.2644 28.5046 46.3801C28.5278 46.4842 28.5625 46.5826 28.6088 46.6752C28.6666 46.7678 28.7245 46.8488 28.7824 46.9182C28.8518 46.9877 28.9328 47.0224 29.0254 47.0224Z" fill="black"/>
<path d="M32.7538 35.7387H35.2188V35.9123H35.132C35.0394 35.9123 34.9584 35.947 34.889 36.0165C34.8195 36.0743 34.7559 36.1496 34.698 36.2421C34.6517 36.3347 34.617 36.4331 34.5939 36.5373C34.5707 36.6414 34.5591 36.734 34.5591 36.815V43.672C34.5591 44.1233 34.6054 44.54 34.698 44.9219C34.7906 45.3038 34.9468 45.6336 35.1667 45.9114C35.3866 46.1891 35.6759 46.409 36.0347 46.571C36.3935 46.7215 36.8332 46.7967 37.354 46.7967C37.9327 46.7967 38.3956 46.7041 38.7428 46.519C39.09 46.3338 39.3562 46.0965 39.5413 45.8072C39.7265 45.5063 39.848 45.1707 39.9059 44.8004C39.9637 44.43 39.9927 44.0655 39.9927 43.7067V36.815C39.9927 36.734 39.9811 36.6414 39.9579 36.5373C39.9348 36.4331 39.8943 36.3347 39.8364 36.2421C39.7901 36.1496 39.7323 36.0743 39.6628 36.0165C39.5934 35.947 39.5182 35.9123 39.4372 35.9123H39.3504V35.7387H41.2425V35.9123H41.1558C41.0632 35.9123 40.9822 35.947 40.9127 36.0165C40.8549 36.0743 40.797 36.1496 40.7391 36.2421C40.6928 36.3347 40.6581 36.4331 40.635 36.5373C40.6118 36.6414 40.6002 36.734 40.6002 36.815V43.6546C40.6002 44.4069 40.5077 45.026 40.3225 45.5121C40.1373 45.9866 39.8827 46.3627 39.5587 46.6405C39.2346 46.9182 38.8527 47.1092 38.413 47.2133C37.9848 47.3175 37.5276 47.3696 37.0416 47.3696C36.5208 47.3696 36.0347 47.3117 35.5834 47.196C35.1436 47.0918 34.7617 46.9009 34.4376 46.6231C34.1136 46.3454 33.859 45.9692 33.6738 45.4947C33.4886 45.0087 33.3961 44.4011 33.3961 43.672V36.815C33.3961 36.734 33.3845 36.6414 33.3613 36.5373C33.3382 36.4331 33.2977 36.3347 33.2398 36.2421C33.1935 36.1496 33.1357 36.0743 33.0662 36.0165C32.9968 35.947 32.9216 35.9123 32.8406 35.9123H32.7538V35.7387Z" fill="black"/>
<path d="M45.2523 47.0224H45.3391V47.196H42.8914V47.0224H42.9782C43.0592 47.0224 43.1345 46.9877 43.2039 46.9182C43.2733 46.8488 43.3312 46.7678 43.3775 46.6752C43.4354 46.5826 43.4759 46.4842 43.499 46.3801C43.5222 46.2644 43.5337 46.1602 43.5337 46.0676V36.815C43.5337 36.734 43.5222 36.6414 43.499 36.5373C43.4759 36.4331 43.4354 36.3347 43.3775 36.2421C43.3312 36.1496 43.2733 36.0743 43.2039 36.0165C43.1345 35.947 43.0592 35.9123 42.9782 35.9123H42.8914V35.7387H45.912C47.0693 35.7387 47.9604 35.9644 48.5853 36.4157C49.2219 36.8671 49.5401 37.5325 49.5401 38.4121C49.5401 38.8519 49.4649 39.2395 49.3144 39.5752C49.1756 39.8992 48.9846 40.1827 48.7416 40.4258C48.4985 40.6572 48.2092 40.8482 47.8736 40.9986C47.5496 41.1375 47.2024 41.2417 46.832 41.3111L48.0819 43.2207C48.3828 43.6836 48.6895 44.1407 49.002 44.5921C49.3144 45.0318 49.6211 45.489 49.922 45.9635C50.003 46.0792 50.0898 46.2007 50.1824 46.328C50.2866 46.4553 50.3907 46.571 50.4949 46.6752C50.6106 46.7793 50.7263 46.8661 50.8421 46.9356C50.9694 46.9934 51.0967 47.0224 51.224 47.0224V47.196H50.4775C50.0146 47.196 49.6327 47.086 49.3318 46.8661C49.0425 46.6347 48.7994 46.3685 48.6027 46.0676C48.0819 45.3038 47.5611 44.5284 47.0403 43.7414C46.5311 42.9545 46.0219 42.1791 45.5127 41.4153C45.3854 41.4037 45.2465 41.3921 45.0961 41.3806C44.9572 41.3574 44.8241 41.3343 44.6968 41.3111V46.0676C44.6968 46.1602 44.7084 46.2644 44.7315 46.3801C44.7547 46.4842 44.7894 46.5826 44.8357 46.6752C44.8936 46.7678 44.9514 46.8488 45.0093 46.9182C45.0787 46.9877 45.1597 47.0224 45.2523 47.0224ZM44.6968 36.3289V40.7383H44.7836C44.8762 40.7498 45.0209 40.7614 45.2176 40.773C45.4259 40.773 45.6805 40.773 45.9814 40.773C46.2244 40.773 46.4791 40.7383 46.7452 40.6688C47.023 40.5878 47.2776 40.4605 47.5091 40.2869C47.7521 40.1017 47.9488 39.8645 48.0993 39.5752C48.2613 39.2858 48.3423 38.9213 48.3423 38.4815C48.3423 38.0417 48.2555 37.683 48.0819 37.4052C47.9199 37.1275 47.6884 36.9076 47.3875 36.7456C47.0982 36.5835 46.7452 36.4736 46.3286 36.4157C45.912 36.3579 45.4548 36.3289 44.9572 36.3289H44.6968Z" fill="black"/>
<path d="M54.089 47.0224H54.1758V47.196H52.2489V47.0224H52.3357C52.4167 47.0224 52.4919 46.9877 52.5613 46.9182C52.6423 46.8488 52.706 46.7678 52.7523 46.6752C52.7986 46.5826 52.8333 46.4842 52.8564 46.3801C52.8912 46.2644 52.9085 46.1602 52.9085 46.0676V36.815C52.9085 36.734 52.897 36.6414 52.8738 36.5373C52.8622 36.4331 52.8333 36.3347 52.787 36.2421C52.7407 36.1496 52.6771 36.0743 52.5961 36.0165C52.515 35.947 52.4167 35.9123 52.3009 35.9123H52.2141V35.7387H53.9675L60.2689 45.6683V36.815C60.2689 36.734 60.2516 36.6414 60.2169 36.5373C60.1937 36.4331 60.1532 36.3347 60.0953 36.2421C60.0491 36.1496 59.9912 36.0743 59.9218 36.0165C59.8523 35.947 59.7713 35.9123 59.6787 35.9123H59.5919V35.7387H61.5362V35.9123H61.4494C61.3568 35.9123 61.2758 35.947 61.2064 36.0165C61.1369 36.0743 61.0733 36.1496 61.0154 36.2421C60.9691 36.3347 60.9344 36.4331 60.9112 36.5373C60.8881 36.6414 60.8765 36.734 60.8765 36.815V47.196H59.8002L53.5161 37.2316V46.0676C53.5161 46.1602 53.5277 46.2644 53.5508 46.3801C53.574 46.4842 53.6087 46.5826 53.655 46.6752C53.7128 46.7678 53.7765 46.8488 53.8459 46.9182C53.9154 46.9877 53.9964 47.0224 54.089 47.0224Z" fill="black"/>
<path d="M63.1668 47.0224H63.2536C63.3461 47.0224 63.4271 46.9934 63.4966 46.9356C63.566 46.8661 63.6239 46.7851 63.6702 46.6926C63.728 46.6 63.7686 46.5016 63.7917 46.3974C63.8264 46.2933 63.8438 46.1949 63.8438 46.1023V36.815C63.8438 36.734 63.8264 36.6414 63.7917 36.5373C63.7686 36.4331 63.728 36.3347 63.6702 36.2421C63.6239 36.1496 63.566 36.0743 63.4966 36.0165C63.4271 35.947 63.3461 35.9123 63.2536 35.9123H63.1668V35.7387H69.8502V37.3532H69.6766C69.6534 37.087 69.5493 36.8555 69.3641 36.6588C69.1789 36.4505 68.8896 36.3463 68.4961 36.3463H65.0069V40.7383H67.8885C68.1547 40.7383 68.3746 40.6572 68.5482 40.4952C68.7334 40.3332 68.8259 40.1422 68.8259 39.9224H68.9995V42.0923H68.8259C68.8259 41.884 68.7391 41.7046 68.5656 41.5541C68.392 41.4037 68.1663 41.3285 67.8885 41.3285H65.0069V46.5884H68.8086C69.0285 46.5884 69.2194 46.5363 69.3815 46.4322C69.5435 46.328 69.6766 46.2065 69.7807 46.0676C69.8964 45.9172 69.9775 45.7609 70.0238 45.5989C70.0816 45.4253 70.1105 45.2806 70.1105 45.1649H70.2841V47.196H63.1668V47.0224Z" fill="black"/>
</svg>
