<svg width="184" height="54" viewBox="0 0 184 54" fill="none" xmlns="http://www.w3.org/2000/svg">
<path d="M180.679 21.2453C179.62 21.3549 178.634 21.3914 177.648 21.4279C178.341 24.5323 179.839 30.2662 183.016 38.2279L176.369 39.6523C176.369 39.6523 175.858 35.7444 175.42 30.9236C174.507 30.8871 173.448 30.814 172.352 30.7044C171.439 36.4384 169.978 40.6018 169.978 40.6018L162.966 38.2645C164.792 35.3792 166.216 32.494 167.275 29.8279C166.034 29.5358 164.755 29.134 163.587 28.6592L164.828 25.6279C164.828 25.6279 166.034 26.2488 168.517 26.5044C169.211 24.3131 169.686 22.3775 170.015 20.8436C168.042 20.5149 166.508 20.0766 165.449 19.6749C166.07 18.7618 167.568 15.0366 167.568 15.0366C172.279 16.7531 177.757 17.4105 180.46 17.5201L180.679 21.2453ZM172.863 26.541C173.557 26.4679 174.288 26.3949 175.055 26.2853C174.945 24.6053 174.872 22.9253 174.835 21.3549C174.215 21.3184 173.63 21.2818 173.046 21.2453C173.082 23.0349 173.009 24.8244 172.863 26.541Z" fill="white"/>
<path d="M149.621 40.6382L142.864 40.2C143.996 25.993 143.96 18.0313 143.814 16.0226L151.118 15.073C152.031 20.2956 153.674 24.24 155.464 27.1617C155.135 20.7704 155.062 15.4747 155.062 15.4747L161.052 15.5478L160.869 33.3339C162.001 34.1739 162.732 34.5391 162.732 34.5391L161.709 38.5565C161.417 38.4834 161.125 38.4104 160.833 38.3373L160.796 40.3095L156.56 40.273C156.377 38.8852 156.231 37.4243 156.085 35.8904C150.57 31.5078 148.927 23.6921 148.634 21.3182C148.927 26.1026 149.328 27.746 149.621 40.6382ZM148.561 20.3686C148.561 20.4052 148.561 20.4417 148.561 20.4782C148.561 20.4052 148.561 20.3686 148.561 20.3686Z" fill="white"/>
<path d="M140.055 21.2453C138.996 21.3549 138.01 21.3914 137.024 21.4279C137.718 24.5323 139.215 30.2662 142.393 38.2279L135.746 39.6523C135.746 39.6523 135.234 35.7444 134.796 30.9236C133.883 30.8871 132.824 30.814 131.728 30.7044C130.815 36.4384 129.354 40.6018 129.354 40.6018L122.342 38.2645C124.168 35.3792 125.593 32.494 126.652 29.8279C125.41 29.5358 124.132 29.134 122.963 28.6592L124.205 25.6279C124.205 25.6279 125.41 26.2488 127.894 26.5044C128.588 24.3131 129.062 22.3775 129.391 20.8436C127.419 20.5149 125.885 20.0766 124.826 19.6749C125.447 18.7618 126.944 15.0366 126.944 15.0366C131.655 16.7531 137.134 17.4105 139.836 17.5201L140.055 21.2453ZM132.24 26.541C132.934 26.4679 133.664 26.3949 134.431 26.2853C134.321 24.6053 134.248 22.9253 134.212 21.3549C133.591 21.3184 133.007 21.2818 132.422 21.2453C132.459 23.0349 132.386 24.8244 132.24 26.541Z" fill="white"/>
<path d="M103.125 29.5358C102.833 29.4992 102.504 29.4992 102.175 29.4627L101.518 26.8331C101.518 26.8331 102.139 26.9062 103.198 26.7966L103.344 16.9723L109.005 16.2418C109.26 16.2418 109.37 19.821 109.187 24.6784C111.744 22.9984 114.41 20.1131 116.236 15.0366L121.678 19.4558C121.678 19.4558 119.194 24.2766 113.533 27.2714C114.885 29.6453 117.587 33.6262 122.591 37.8992L115.944 40.6018C115.944 40.6018 111.087 36.3288 110.283 28.6227C109.845 28.7323 109.407 28.8784 108.968 28.9879C108.749 32.5671 108.384 36.4749 107.836 39.9445L102.979 39.6523L103.125 29.5358Z" fill="white"/>
<path d="M99.2895 21.2453C98.2303 21.3549 97.2442 21.3914 96.2582 21.4279C96.9521 24.5323 98.4495 30.2662 101.627 38.2279L94.9799 39.6523C94.9799 39.6523 94.4686 35.7444 94.0303 30.9236C93.1173 30.8871 92.0582 30.814 90.9625 30.7044C90.0495 36.4384 88.5886 40.6018 88.5886 40.6018L81.5764 38.2645C83.4025 35.3792 84.8269 32.494 85.886 29.8279C84.6442 29.5358 83.366 29.134 82.1973 28.6592L83.439 25.6279C83.439 25.6279 84.6442 26.2488 87.1277 26.5044C87.8216 24.3131 88.2964 22.3775 88.6251 20.8436C86.6529 20.5149 85.119 20.0766 84.0599 19.6749C84.6808 18.7618 86.1782 15.0366 86.1782 15.0366C90.8895 16.7531 96.3677 17.4105 99.0703 17.5201L99.2895 21.2453ZM91.4738 26.541C92.1677 26.4679 92.8982 26.3949 93.6651 26.2853C93.5555 24.6053 93.4825 22.9253 93.446 21.3549C92.8251 21.3184 92.2408 21.2818 91.6564 21.2453C91.6929 23.0349 91.6199 24.8244 91.4738 26.541Z" fill="white"/>
<path d="M63.0824 30.2296C77.8371 37.9723 76.4128 28.6592 76.4128 28.6592C76.4128 28.6592 67.7206 29.0244 62.8267 29.4992C62.8267 29.4992 60.051 21.647 65.5658 16.9723C71.1171 12.334 80.1015 15.9131 80.1015 15.9131L77.7276 23.6557C69.145 19.5653 65.6754 21.5009 65.931 26.7236C65.931 26.7236 75.6093 25.7009 80.065 25.2992C86.785 48.6366 60.8545 37.0957 61.0006 37.1688L63.0824 30.2296Z" fill="white"/>
<circle cx="26.9999" cy="26.9999" r="23.9999" stroke="white" stroke-width="6"/>
<path d="M20.9425 27.6419V29.8425H34.8306V27.6419H20.9425ZM20.9425 22.7647V24.9356H34.8306V22.7647H20.9425ZM17.5225 19.8502H38.429V32.7867H17.5225V19.8502ZM25.9981 20.8614H29.4776V31.3295H25.9981V20.8614ZM23.3514 14.8243H30.8753V17.6496H21.3886L23.3514 14.8243ZM22.0131 12.8616L25.9387 13.6645C25.2051 14.9136 24.3625 16.1527 23.4108 17.3819C22.479 18.5913 21.4282 19.761 20.2585 20.8911C19.1086 22.0212 17.8199 23.0918 16.3924 24.1029C16.214 23.8055 15.9761 23.4883 15.6787 23.1513C15.3813 22.7944 15.0641 22.4574 14.7271 22.1401C14.4098 21.8031 14.1124 21.5454 13.8349 21.3669C15.1434 20.5541 16.3131 19.6718 17.3441 18.7202C18.375 17.7487 19.2771 16.7673 20.0503 15.776C20.8434 14.7649 21.4976 13.7934 22.0131 12.8616ZM29.8047 14.8243H30.6077L31.143 14.6757L33.6708 16.1923C33.3536 16.8268 32.9571 17.5009 32.4812 18.2146C32.0054 18.9283 31.4998 19.6123 30.9645 20.2666C30.4491 20.9208 29.9435 21.5156 29.4479 22.0509C29.0712 21.7734 28.5953 21.4561 28.0204 21.0993C27.4653 20.7424 26.9696 20.4648 26.5334 20.2666C26.9696 19.8106 27.4058 19.2951 27.842 18.7202C28.2781 18.1452 28.6647 17.5702 29.0018 16.9953C29.3586 16.4005 29.6263 15.895 29.8047 15.4786V14.8243ZM22.8161 34.6603L26.2063 34.3331C26.4244 35.2848 26.6028 36.3157 26.7416 37.426C26.9002 38.5362 26.9894 39.4681 27.0093 40.2215L23.3811 40.6675C23.3811 40.1521 23.3514 39.5474 23.2919 38.8535C23.2522 38.1794 23.1928 37.4755 23.1135 36.742C23.0341 35.9886 22.935 35.2947 22.8161 34.6603ZM28.5259 34.7197L31.7972 34.006C32.0946 34.6008 32.3821 35.2451 32.6597 35.939C32.9571 36.6131 33.2247 37.2872 33.4626 37.9613C33.7005 38.6155 33.8691 39.2004 33.9682 39.7159L30.4887 40.5783C30.4094 40.0827 30.2607 39.4978 30.0426 38.8237C29.8444 38.1496 29.6065 37.4557 29.3289 36.742C29.0712 36.0283 28.8035 35.3542 28.5259 34.7197ZM34.2656 34.6603L37.5071 33.2625C38.0623 33.8771 38.6174 34.5512 39.1725 35.2848C39.7475 36.0183 40.2828 36.7519 40.7784 37.4855C41.2741 38.1992 41.6607 38.8535 41.9382 39.4482L38.429 41.0541C38.1911 40.4792 37.8442 39.815 37.3882 39.0616C36.9322 38.3281 36.4266 37.5747 35.8715 36.8015C35.3362 36.0084 34.8009 35.2947 34.2656 34.6603ZM17.6712 33.5897L21.1804 34.5413C20.7244 35.7507 20.1197 36.9402 19.3663 38.11C18.6328 39.2797 17.8298 40.2611 16.9575 41.0541L13.6267 39.2103C14.4197 38.5957 15.183 37.7829 15.9166 36.7717C16.6502 35.7408 17.235 34.6801 17.6712 33.5897Z" fill="white"/>
</svg>
