<svg width="69" height="69" viewBox="0 0 69 69" fill="none" xmlns="http://www.w3.org/2000/svg">
<circle cx="34.5" cy="34.5" r="31.5" stroke="white" stroke-width="6"/>
<path d="M26.7601 35.3201V38.1321H44.5061V35.3201H26.7601ZM26.7601 29.0881V31.8621H44.5061V29.0881H26.7601ZM22.3901 25.3641H49.1041V41.8941H22.3901V25.3641ZM33.2201 26.6561H37.6661V40.0321H33.2201V26.6561ZM29.8381 18.9421H39.4521V22.5521H27.3301L29.8381 18.9421ZM28.1281 16.4341L33.1441 17.4601C32.2068 19.0561 31.1301 20.6394 29.9141 22.2101C28.7234 23.7554 27.3808 25.2501 25.8861 26.6941C24.4168 28.1381 22.7701 29.5061 20.9461 30.7981C20.7181 30.4181 20.4141 30.0127 20.0341 29.5821C19.6541 29.1261 19.2488 28.6954 18.8181 28.2901C18.4128 27.8594 18.0328 27.5301 17.6781 27.3021C19.3501 26.2634 20.8448 25.1361 22.1621 23.9201C23.4794 22.6787 24.6321 21.4247 25.6201 20.1581C26.6334 18.8661 27.4694 17.6247 28.1281 16.4341ZM38.0841 18.9421H39.1101L39.7941 18.7521L43.0241 20.6901C42.6188 21.5007 42.1121 22.3621 41.5041 23.2741C40.8961 24.1861 40.2501 25.0601 39.5661 25.8961C38.9074 26.7321 38.2614 27.4921 37.6281 28.1761C37.1468 27.8214 36.5388 27.4161 35.8041 26.9601C35.0948 26.5041 34.4614 26.1494 33.9041 25.8961C34.4614 25.3134 35.0188 24.6547 35.5761 23.9201C36.1334 23.1854 36.6274 22.4507 37.0581 21.7161C37.5141 20.9561 37.8561 20.3101 38.0841 19.7781V18.9421ZM29.1541 44.2881L33.4861 43.8701C33.7648 45.0861 33.9928 46.4034 34.1701 47.8221C34.3728 49.2408 34.4868 50.4314 34.5121 51.3941L29.8761 51.9641C29.8761 51.3054 29.8381 50.5328 29.7621 49.6461C29.7114 48.7848 29.6354 47.8854 29.5341 46.9481C29.4328 45.9854 29.3061 45.0988 29.1541 44.2881ZM36.4501 44.3641L40.6301 43.4521C41.0101 44.2121 41.3774 45.0354 41.7321 45.9221C42.1121 46.7834 42.4541 47.6448 42.7581 48.5061C43.0621 49.3421 43.2774 50.0894 43.4041 50.7481L38.9581 51.8501C38.8568 51.2167 38.6668 50.4694 38.3881 49.6081C38.1348 48.7468 37.8308 47.8601 37.4761 46.9481C37.1468 46.0361 36.8048 45.1748 36.4501 44.3641ZM43.7841 44.2881L47.9261 42.5021C48.6354 43.2874 49.3448 44.1488 50.0541 45.0861C50.7888 46.0234 51.4728 46.9608 52.1061 47.8981C52.7394 48.8101 53.2334 49.6461 53.5881 50.4061L49.1041 52.4581C48.8001 51.7234 48.3568 50.8748 47.7741 49.9121C47.1914 48.9748 46.5454 48.0121 45.8361 47.0241C45.1521 46.0108 44.4681 45.0988 43.7841 44.2881ZM22.5801 42.9201L27.0641 44.1361C26.4814 45.6814 25.7088 47.2014 24.7461 48.6961C23.8088 50.1907 22.7828 51.4448 21.6681 52.4581L17.4121 50.1021C18.4254 49.3167 19.4008 48.2781 20.3381 46.9861C21.2754 45.6688 22.0228 44.3134 22.5801 42.9201Z" fill="white"/>
</svg>
