<svg width="291" height="291" viewBox="0 0 291 291" fill="none" xmlns="http://www.w3.org/2000/svg">
<path d="M119.31 150.35C119.31 151.441 119.31 151.441 118.461 151.441H97C101.001 139.316 105.245 126.464 109.125 113.854C109.125 114.824 109.125 115.794 109.974 116.764C110.822 117.734 111.065 120.765 111.55 122.705L113.733 129.495C113.733 131.799 115.066 133.981 115.794 136.285L118.097 143.196L119.31 150.35Z" fill="#525252"/>
<path d="M207.095 142.711C206.422 140.659 205.213 138.824 203.592 137.396C201.972 135.968 200 134.998 197.88 134.588C195.672 134.226 193.419 134.226 191.211 134.588C189.577 134.906 188.034 135.582 186.692 136.567C185.351 137.552 184.244 138.822 183.451 140.286C182.223 142.464 181.401 144.847 181.026 147.319H206.125C207.338 147.319 207.701 147.319 207.58 145.621C207.537 144.635 207.375 143.658 207.095 142.711ZM207.095 142.711C206.422 140.659 205.213 138.824 203.592 137.396C201.972 135.968 200 134.998 197.88 134.588C195.672 134.226 193.419 134.226 191.211 134.588C189.577 134.906 188.034 135.582 186.692 136.567C185.351 137.552 184.244 138.822 183.451 140.286C182.223 142.464 181.401 144.847 181.026 147.319H206.125C207.338 147.319 207.701 147.319 207.58 145.621C207.537 144.635 207.375 143.658 207.095 142.711ZM207.095 142.711C206.422 140.659 205.213 138.824 203.592 137.396C201.972 135.968 200 134.998 197.88 134.588C195.672 134.226 193.419 134.226 191.211 134.588C189.577 134.906 188.034 135.582 186.692 136.567C185.351 137.552 184.244 138.822 183.451 140.286C182.223 142.464 181.401 144.847 181.026 147.319H206.125C207.338 147.319 207.701 147.319 207.58 145.621C207.537 144.635 207.375 143.658 207.095 142.711ZM207.095 142.711C206.422 140.659 205.213 138.824 203.592 137.396C201.972 135.968 200 134.998 197.88 134.588C195.672 134.226 193.419 134.226 191.211 134.588C189.577 134.906 188.034 135.582 186.692 136.567C185.351 137.552 184.244 138.822 183.451 140.286C182.223 142.464 181.401 144.847 181.026 147.319H206.125C207.338 147.319 207.701 147.319 207.58 145.621C207.537 144.635 207.375 143.658 207.095 142.711ZM206.125 24.25H84.875C68.7963 24.25 53.376 30.6373 42.0067 42.0067C30.6373 53.376 24.25 68.7963 24.25 84.875V206.125C24.25 222.204 30.6373 237.624 42.0067 248.993C53.376 260.363 68.7963 266.75 84.875 266.75H206.125C222.204 266.75 237.624 260.363 248.993 248.993C260.363 237.624 266.75 222.204 266.75 206.125V84.875C266.75 68.7963 260.363 53.376 248.993 42.0067C237.624 30.6373 222.204 24.25 206.125 24.25ZM154.351 194H134.709C134.372 194.051 134.028 194 133.721 193.853C133.414 193.706 133.158 193.47 132.987 193.176C132.873 192.982 132.799 192.768 132.769 192.545C131.799 189.514 130.707 186.604 129.737 183.573C128.767 180.541 127.312 176.661 126.221 173.145C126.221 171.205 124.645 170.963 122.948 170.963H92.3925C91.0587 170.963 91.0587 170.963 90.5737 172.418C90.0887 173.873 89.3612 176.419 88.6337 178.48L86.6938 184.785L84.1475 192.181C84.2128 192.501 84.2128 192.831 84.1475 193.151C84.1475 194.728 82.2075 194.485 80.995 194.485H65.3537C63.535 194.485 62.9288 193.636 63.6562 191.939C64.3837 190.241 64.99 188.301 65.5962 186.604L68.1425 178.844L72.8713 165.506C74.205 161.869 75.4175 158.11 76.63 154.351C77.8425 150.592 78.9338 147.925 80.1463 144.651L82.6925 137.013L87.1788 124.888L90.8162 114.218C92.0287 110.823 93.2413 107.427 94.3325 103.911C94.5028 102.259 94.5028 100.593 94.3325 98.94C94.3325 96.3937 94.3325 96.3937 96.8787 96.3937H118.825C120.765 96.3937 120.644 96.3938 121.25 98.2125C121.856 100.031 123.433 104.154 124.403 107.064C125.373 109.974 126.221 112.156 127.07 114.581L129.98 122.463L132.89 130.95C134.103 134.224 135.315 137.376 136.406 140.65L139.559 149.38C140.529 152.29 141.62 155.2 142.711 158.231C143.803 161.263 144.166 162.718 145.015 164.9C145.864 167.083 146.713 169.75 147.683 172.175C148.653 174.6 149.259 176.783 150.108 179.086L153.624 188.907L155.079 193.151C155.564 193.03 155.2 194 154.351 194ZM227.101 157.625C227.158 158.716 227.158 159.808 227.101 160.899C227.101 161.99 225.282 162.354 224.191 162.354H181.39C181.827 166.331 183.572 170.041 186.361 172.903C191.414 176.006 197.148 177.827 203.065 178.207C208.983 178.588 214.903 177.516 220.311 175.085C221.281 175.085 221.766 175.085 221.766 176.055V189.756C221.766 191.939 220.917 192.181 219.099 192.909L214.734 194.243C213.347 194.651 211.927 194.935 210.49 195.091C207.459 195.091 204.428 195.94 201.396 196.061C198.365 196.183 197.274 196.061 195.213 196.061H194C191.575 196.061 189.029 196.061 186.725 195.213C180.037 193.877 173.932 190.486 169.265 185.513C166.304 182.451 163.994 178.821 162.475 174.843C161.248 171.939 160.432 168.878 160.05 165.749C159.876 162.194 159.876 158.633 160.05 155.079C160.232 150.702 161.056 146.373 162.475 142.226C163.667 138.775 165.341 135.51 167.446 132.526C170.209 128.363 173.957 124.948 178.359 122.584C180.258 121.484 182.239 120.555 184.3 119.795C186.538 119.262 188.805 118.857 191.09 118.582C193.151 118.461 195.213 118.461 197.274 118.582C200.313 118.631 203.304 119.035 206.246 119.795C208.914 120.547 211.46 121.598 213.885 122.948C217.619 125.089 220.716 128.186 222.857 131.92C224.07 134.103 225.04 136.285 226.01 138.468C226.527 140.011 226.931 141.588 227.222 143.196C228.306 147.933 228.43 152.839 227.586 157.625H227.101ZM197.395 135.194C195.187 134.832 192.934 134.832 190.726 135.194C189.092 135.512 187.549 136.188 186.207 137.173C184.866 138.159 183.759 139.429 182.966 140.892C181.738 143.07 180.916 145.453 180.541 147.925H206.125C207.338 147.925 207.701 147.925 207.58 146.228C207.479 145.149 207.235 144.089 206.852 143.075C206.255 140.986 205.106 139.096 203.528 137.603C201.949 136.11 199.999 135.069 197.88 134.588L197.395 135.194ZM206.61 143.317C205.937 141.265 204.728 139.43 203.107 138.002C201.487 136.574 199.515 135.604 197.395 135.194C195.187 134.832 192.934 134.832 190.726 135.194C189.092 135.512 187.549 136.188 186.207 137.173C184.866 138.159 183.759 139.429 182.966 140.892C181.738 143.07 180.916 145.453 180.541 147.925H206.125C207.338 147.925 207.701 147.925 207.58 146.228C207.58 145.031 207.418 143.859 207.095 142.711L206.61 143.317ZM206.61 143.317C205.937 141.265 204.728 139.43 203.107 138.002C201.487 136.574 199.515 135.604 197.395 135.194C195.187 134.832 192.934 134.832 190.726 135.194C189.092 135.512 187.549 136.188 186.207 137.173C184.866 138.159 183.759 139.429 182.966 140.892C181.738 143.07 180.916 145.453 180.541 147.925H206.125C207.338 147.925 207.701 147.925 207.58 146.228C207.58 145.031 207.418 143.859 207.095 142.711L206.61 143.317ZM206.61 143.317C205.937 141.265 204.728 139.43 203.107 138.002C201.487 136.574 199.515 135.604 197.395 135.194C195.187 134.832 192.934 134.832 190.726 135.194C189.092 135.512 187.549 136.188 186.207 137.173C184.866 138.159 183.759 139.429 182.966 140.892C181.738 143.07 180.916 145.453 180.541 147.925H206.125C207.338 147.925 207.701 147.925 207.58 146.228C207.58 145.031 207.418 143.859 207.095 142.711L206.61 143.317ZM206.61 143.317C205.937 141.265 204.728 139.43 203.107 138.002C201.487 136.574 199.515 135.604 197.395 135.194C195.187 134.832 192.934 134.832 190.726 135.194C189.092 135.512 187.549 136.188 186.207 137.173C184.866 138.159 183.759 139.429 182.966 140.892C181.738 143.07 180.916 145.453 180.541 147.925H206.125C207.338 147.925 207.701 147.925 207.58 146.228C207.58 145.031 207.418 143.859 207.095 142.711L206.61 143.317Z" fill="#525252"/>
</svg>
