<svg width="266" height="266" viewBox="0 0 266 266" fill="none" xmlns="http://www.w3.org/2000/svg">
<path d="M233.529 92.1092L150.197 28.1092C144.739 23.9182 135.568 23.9369 129.574 28.1316C123.506 32.3699 122.806 39.396 128.199 43.8266L162.855 72.0299H57.0414C48.3066 72.0335 39.9099 77.8824 38.2531 85.1293C36.5402 92.5077 42.4691 98.5582 51.551 98.5862H105.104L9.1604 172.228C0.143939 179.127 -2.76596 190.612 2.91304 197.874C8.67204 205.266 20.9314 205.28 30.0414 197.915L82.2049 155.228C82.2049 155.228 81.4397 160.986 81.5005 164.445C83.0689 193.645 105.33 220.713 132.894 232.702C180.39 253.739 244.515 234.481 262.547 179.656C271.122 150.897 264.548 116.699 233.529 92.1098M145.19 194.05C107.678 174.415 107.678 125.063 145.19 105.428C182.702 85.7933 229.846 110.47 229.846 149.739C229.846 189.008 182.702 213.684 145.19 194.05ZM156.614 176.38C132.687 163.866 132.687 132.411 156.614 119.897C180.541 107.383 210.611 123.11 210.611 148.139C210.611 173.167 180.54 188.895 156.614 176.38Z" fill="#525252"/>
</svg>
