<svg width="81" height="81" viewBox="0 0 81 81" fill="none" xmlns="http://www.w3.org/2000/svg">
<path d="M18.3026 10.2533C13.9691 10.2533 10.7662 14.0468 10.9114 18.1575C11.0464 22.1097 10.8675 27.2295 9.57825 31.401C8.28563 35.586 6.102 38.2388 2.53125 38.5797V42.4204C6.102 42.7613 8.28563 45.414 9.57825 49.599C10.8675 53.7739 11.0464 58.8904 10.908 62.8425C10.7663 66.9533 13.9691 70.7468 18.306 70.7468H62.7007C67.0342 70.7468 70.2405 66.9533 70.0988 62.8425C69.9604 58.8904 70.1393 53.7739 71.4251 49.599C72.7211 45.414 74.9014 42.7613 78.4688 42.4204V38.5797C74.898 38.2388 72.7211 35.586 71.4251 31.401C70.1393 27.2295 69.9604 22.1097 70.0988 18.1575C70.2405 14.0468 67.0342 10.2533 62.7007 10.2533H18.3026ZM54.0135 47.4897C54.0135 53.1529 49.7914 56.5887 42.7815 56.5887H30.8475C30.6782 56.5896 30.5105 56.5569 30.3539 56.4927C30.1973 56.4284 30.0549 56.3338 29.9351 56.2142C29.8152 56.0947 29.7202 55.9526 29.6555 55.7962C29.5909 55.6398 29.5578 55.4721 29.5583 55.3028V25.6973C29.5582 25.5283 29.5916 25.361 29.6565 25.2049C29.7214 25.0489 29.8165 24.9072 29.9363 24.788C30.0561 24.6689 30.1983 24.5745 30.3546 24.5105C30.511 24.4464 30.6785 24.4139 30.8475 24.4148H42.7106C48.5561 24.4148 52.3935 27.5772 52.3935 32.4405C52.3935 35.8493 49.8116 38.907 46.5244 39.4403V39.6192C50.9996 40.1085 54.0135 43.2102 54.0135 47.4897ZM41.4787 28.4918H34.6748V38.1038H40.4055C44.8369 38.1038 47.277 36.3184 47.277 33.129C47.277 30.1422 45.1777 28.4918 41.4787 28.4918ZM34.6748 41.9142V52.5083H41.7285C46.3421 52.5083 48.7823 50.6554 48.7823 47.1758C48.7823 43.6995 46.2746 41.9142 41.4315 41.9142H34.6748Z" fill="#525252"/>
</svg>
