<svg width="103" height="103" viewBox="0 0 103 103" fill="none" xmlns="http://www.w3.org/2000/svg">
<path fill-rule="evenodd" clip-rule="evenodd" d="M7.35714 2.75891C6.68565 2.75936 6.02242 2.90688 5.41404 3.19108C4.80567 3.47529 4.26693 3.88929 3.83568 4.40398C3.40443 4.91868 3.09113 5.52158 2.91782 6.17031C2.74451 6.81904 2.71539 7.49786 2.83249 8.15905L13.8682 70.6948C14.0595 71.8131 14.6701 72.8283 15.5677 73.5199L48.6749 99.2699C49.4823 99.8987 50.4765 100.24 51.5 100.24C52.5234 100.24 53.5176 99.8987 54.3251 99.2699L87.4323 73.5199C88.3259 72.8183 88.9307 71.8129 89.1318 70.6948L100.167 8.15905C100.285 7.49786 100.255 6.81904 100.082 6.17031C99.9088 5.52158 99.5956 4.91868 99.1643 4.40398C98.7331 3.88929 98.1943 3.47529 97.5859 3.19108C96.9776 2.90688 96.3143 2.75936 95.6429 2.75891H7.35714ZM22.6158 67.3546L12.8382 11.9553H90.1618L80.3841 67.3546L51.5 89.8086L22.6158 67.3546ZM33.1071 18.3928C31.6437 18.3928 30.2402 18.9742 29.2054 20.009C28.1706 21.0438 27.5893 22.4473 27.5893 23.9107C27.5893 25.3741 28.1706 26.7776 29.2054 27.8124C30.2402 28.8472 31.6437 29.4286 33.1071 29.4286H50.6539L37.5435 37.6244C36.5277 38.2593 35.7461 39.2074 35.3168 40.3256C34.8874 41.4439 34.8336 42.6714 35.1634 43.823C35.4932 44.9745 36.1888 45.9874 37.1451 46.7087C38.1014 47.4301 39.2664 47.8206 40.4643 47.8214H60.6964V57.9375L51.5 64.8385L40.0964 56.2821C39.5167 55.8474 38.8571 55.531 38.1551 55.3512C37.4532 55.1714 36.7227 55.1315 36.0054 55.234C35.288 55.3365 34.5979 55.5793 33.9744 55.9484C33.3509 56.3176 32.8062 56.806 32.3714 57.3857C31.9367 57.9654 31.6203 58.625 31.4405 59.327C31.2606 60.0289 31.2208 60.7594 31.3233 61.4768C31.4258 62.1941 31.6685 62.8842 32.0377 63.5077C32.4069 64.1312 32.8953 64.6759 33.475 65.1107L48.1893 76.1464C50.1536 77.6178 52.8464 77.6178 54.8107 76.1464L69.525 65.1107C70.2103 64.5967 70.7665 63.9303 71.1496 63.1641C71.5327 62.3979 71.7321 61.553 71.7321 60.6964V42.3036C71.7321 40.8401 71.1508 39.4366 70.116 38.4018C69.0812 37.367 67.6777 36.7857 66.2143 36.7857H59.7032L72.8136 28.5898C73.8294 27.955 74.611 27.0069 75.0404 25.8886C75.4697 24.7704 75.5236 23.5428 75.1937 22.3913C74.8639 21.2398 74.1683 20.2268 73.212 19.5055C72.2557 18.7842 71.0907 18.3936 69.8929 18.3928H33.1071Z" fill="#525252"/>
</svg>
