<svg width="115" height="115" viewBox="0 0 115 115" fill="none" xmlns="http://www.w3.org/2000/svg">
<path d="M40.7291 43.125C36.2812 43.125 32.0155 41.3581 28.8704 38.213C25.7252 35.0678 23.9583 30.8021 23.9583 26.3542C23.9583 21.9063 25.7252 17.6406 28.8704 14.4954C32.0155 11.3503 36.2812 9.58337 40.7291 9.58337H74.2708C78.7187 9.58337 82.9844 11.3503 86.1296 14.4954C89.2747 17.6406 91.0417 21.9063 91.0417 26.3542C91.0417 30.8021 89.2747 35.0678 86.1296 38.213C82.9844 41.3581 78.7187 43.125 74.2708 43.125H40.7291ZM40.7291 43.125C36.2812 43.125 32.0155 44.892 28.8704 48.0371C25.7252 51.1822 23.9583 55.448 23.9583 59.8959C23.9583 64.3438 25.7252 68.6095 28.8704 71.7546C32.0155 74.8998 36.2812 76.6667 40.7291 76.6667M40.7291 76.6667H57.5M40.7291 76.6667C36.2812 76.6667 32.0155 78.4336 28.8704 81.5788C25.7252 84.7239 23.9583 88.9896 23.9583 93.4375C23.9583 97.8854 25.7252 102.151 28.8704 105.296C32.0155 108.441 36.2812 110.208 40.7291 110.208C45.177 110.208 49.4428 108.441 52.5879 105.296C55.7331 102.151 57.5 97.8854 57.5 93.4375V9.58337" stroke="#525252" stroke-width="8" stroke-linecap="round" stroke-linejoin="round"/>
<path d="M74.2708 76.6667C83.5331 76.6667 91.0417 69.1581 91.0417 59.8958C91.0417 50.6336 83.5331 43.125 74.2708 43.125C65.0086 43.125 57.5 50.6336 57.5 59.8958C57.5 69.1581 65.0086 76.6667 74.2708 76.6667Z" stroke="#525252" stroke-width="8" stroke-linecap="round" stroke-linejoin="round"/>
</svg>
