<svg width="307" height="307" viewBox="0 0 307 307" fill="none" xmlns="http://www.w3.org/2000/svg">
<path fill-rule="evenodd" clip-rule="evenodd" d="M165.716 11.423C164.112 9.81785 162.208 8.54453 160.112 7.67577C158.016 6.80702 155.769 6.35986 153.5 6.35986C151.231 6.35986 148.984 6.80702 146.888 7.67577C144.792 8.54453 142.888 9.81785 141.284 11.423L105.403 47.3292C108.205 49.9898 110.904 52.5737 112.311 53.9808L141.092 82.7621C146.463 80.1971 152.497 79.3602 158.363 80.3666C164.229 81.3731 169.639 84.1734 173.847 88.382C178.056 92.5905 180.856 98.0003 181.863 103.866C182.869 109.733 182.032 115.766 179.467 121.137L195.457 137.127C201.583 134.199 208.547 133.532 215.118 135.243C221.689 136.953 227.443 140.932 231.364 146.476C235.285 152.019 237.119 158.77 236.544 165.536C235.968 172.301 233.019 178.645 228.218 183.447C223.416 188.248 217.072 191.197 210.307 191.773C203.541 192.349 196.79 190.514 191.247 186.593C185.703 182.672 181.724 176.918 180.013 170.347C178.303 163.776 178.97 156.812 181.898 150.686L165.908 134.722C164.994 135.161 164.054 135.545 163.094 135.873V183.931C169.498 186.195 174.897 190.649 178.334 196.508C181.772 202.367 183.028 209.252 181.88 215.947C180.732 222.642 177.254 228.716 172.06 233.094C166.867 237.473 160.293 239.874 153.5 239.874C146.707 239.874 140.133 237.473 134.94 233.094C129.747 228.716 126.268 222.642 125.12 215.947C123.972 209.252 125.228 202.367 128.666 196.508C132.103 190.649 137.502 186.195 143.906 183.931V135.886C140.098 134.541 136.616 132.409 133.686 129.63C130.756 126.85 128.443 123.485 126.899 119.754C125.355 116.022 124.613 112.007 124.722 107.97C124.832 103.933 125.789 99.964 127.533 96.3213L98.7517 67.54C97.8051 66.6062 95.0421 63.7153 92.1 60.6197L11.4358 141.284C9.83067 142.888 8.55735 144.792 7.68859 146.888C6.81984 148.984 6.37268 151.231 6.37268 153.5C6.37268 155.769 6.81984 158.016 7.68859 160.112C8.55735 162.208 9.83067 164.112 11.4358 165.716L141.284 295.551C142.888 297.157 144.792 298.43 146.888 299.299C148.984 300.167 151.231 300.615 153.5 300.615C155.769 300.615 158.016 300.167 160.112 299.299C162.208 298.43 164.112 297.157 165.716 295.551L295.564 165.716C297.169 164.112 298.443 162.208 299.311 160.112C300.18 158.016 300.627 155.769 300.627 153.5C300.627 151.231 300.18 148.984 299.311 146.888C298.443 144.792 297.169 142.888 295.564 141.284L165.716 11.423ZM153.5 201.469C150.956 201.469 148.515 202.48 146.716 204.279C144.917 206.078 143.906 208.518 143.906 211.062C143.906 213.607 144.917 216.047 146.716 217.846C148.515 219.645 150.956 220.656 153.5 220.656C156.044 220.656 158.485 219.645 160.284 217.846C162.083 216.047 163.094 213.607 163.094 211.062C163.094 208.518 162.083 206.078 160.284 204.279C158.485 202.48 156.044 201.469 153.5 201.469ZM163.094 108.729C163.094 111.274 162.083 113.714 160.284 115.513C158.485 117.312 156.044 118.323 153.5 118.323C150.956 118.323 148.515 117.312 146.716 115.513C144.917 113.714 143.906 111.274 143.906 108.729C143.906 106.185 144.917 103.745 146.716 101.945C148.515 100.146 150.956 99.1354 153.5 99.1354C156.044 99.1354 158.485 100.146 160.284 101.945C162.083 103.745 163.094 106.185 163.094 108.729ZM198.271 163.094C198.271 160.549 199.282 158.109 201.081 156.31C202.88 154.511 205.32 153.5 207.865 153.5C210.409 153.5 212.849 154.511 214.648 156.31C216.448 158.109 217.458 160.549 217.458 163.094C217.458 165.638 216.448 168.078 214.648 169.878C212.849 171.677 210.409 172.687 207.865 172.687C205.32 172.687 202.88 171.677 201.081 169.878C199.282 168.078 198.271 165.638 198.271 163.094Z" fill="#525252"/>
</svg>
