<svg width="340" height="340" viewBox="0 0 340 340" fill="none" xmlns="http://www.w3.org/2000/svg">
<path d="M306.892 141.483L306.496 140.462L267.977 39.9642C267.198 37.9814 265.81 36.2971 264.012 35.154C262.215 34.0108 260.101 33.4679 257.975 33.6033C255.847 33.6959 253.802 34.4619 252.137 35.7909C250.472 37.1199 249.272 38.9434 248.71 40.9983L222.7 120.7H117.328L91.2758 41.0125C90.7203 38.9567 89.5266 37.1302 87.8667 35.7962C86.2068 34.4622 84.1663 33.6894 82.0392 33.5892C79.9132 33.4735 77.8043 34.026 76.0081 35.1693C74.212 36.3125 72.8186 37.9891 72.0233 39.9642L33.4617 140.604L33.065 141.596C27.5359 156.091 26.8586 171.989 31.1347 186.902C35.4109 201.815 44.4098 214.938 56.78 224.301L56.9217 224.4L57.2617 224.669L116.011 268.642L145.053 290.643L162.718 304.017C164.788 305.588 167.316 306.439 169.915 306.439C172.514 306.439 175.042 305.588 177.112 304.017L194.777 290.643L223.819 268.642L282.922 224.4L283.064 224.287C295.484 214.941 304.527 201.807 308.825 186.869C313.124 171.932 312.445 156.001 306.892 141.483Z" fill="#525252"/>
</svg>
