<svg width="114" height="114" viewBox="0 0 114 114" fill="none" xmlns="http://www.w3.org/2000/svg">
<path d="M89.7845 11.875H24.2155C23.5543 11.8751 22.9004 12.0132 22.2957 12.2805C21.691 12.5478 21.1487 12.9384 20.7036 13.4273C20.2585 13.9162 19.9204 14.4927 19.7109 15.1198C19.5013 15.7469 19.4251 16.4108 19.4869 17.0691L25.8709 85.1509C25.9482 85.9795 26.2418 86.7732 26.7224 87.4526C27.203 88.1321 27.8537 88.6733 28.6092 89.0221L55.0097 101.206C55.6337 101.494 56.3128 101.643 57 101.643C57.6872 101.643 58.3663 101.494 58.9902 101.206L85.3907 89.0221C86.1468 88.6736 86.7979 88.1325 87.2789 87.4531C87.7599 86.7737 88.054 85.9797 88.1315 85.1509L94.5131 17.0691C94.5749 16.4108 94.4987 15.7469 94.2891 15.1198C94.0796 14.4927 93.7415 13.9162 93.2964 13.4273C92.8513 12.9384 92.309 12.5478 91.7043 12.2805C91.0996 12.0132 90.4457 11.8751 89.7845 11.875Z" stroke="#525252" stroke-width="9"/>
<path d="M76 28.5H38L40.375 49.875H73.625L71.25 76L57 83.125L42.75 76L41.5625 64.125" stroke="#525252" stroke-width="9" stroke-linecap="round" stroke-linejoin="round"/>
</svg>
