<svg width="117" height="117" viewBox="0 0 117 117" fill="none" xmlns="http://www.w3.org/2000/svg">
<path fill-rule="evenodd" clip-rule="evenodd" d="M3.65625 22.6688C3.65625 17.6263 5.65935 12.7904 9.22488 9.22488C12.7904 5.65935 17.6263 3.65625 22.6688 3.65625H94.3313C99.3737 3.65625 104.21 5.65935 107.775 9.22488C111.341 12.7904 113.344 17.6263 113.344 22.6688V94.3313C113.344 99.3737 111.341 104.21 107.775 107.775C104.21 111.341 99.3737 113.344 94.3313 113.344H22.6688C17.6263 113.344 12.7904 111.341 9.22488 107.775C5.65935 104.21 3.65625 99.3737 3.65625 94.3313V22.6688ZM22.6688 10.9688C19.5657 10.9688 16.5898 12.2014 14.3956 14.3956C12.2014 16.5898 10.9688 19.5657 10.9688 22.6688V94.3313C10.9688 97.4343 12.2014 100.41 14.3956 102.604C16.5898 104.799 19.5657 106.031 22.6688 106.031H94.3313C97.4343 106.031 100.41 104.799 102.604 102.604C104.799 100.41 106.031 97.4343 106.031 94.3313V22.6688C106.031 19.5657 104.799 16.5898 102.604 14.3956C100.41 12.2014 97.4343 10.9688 94.3313 10.9688H22.6688ZM80.184 42.276C81.4769 42.276 82.7169 41.7624 83.6311 40.8481C84.5454 39.9339 85.059 38.6939 85.059 37.401C85.059 36.1081 84.5454 34.8681 83.6311 33.9539C82.7169 33.0396 81.4769 32.526 80.184 32.526C78.8911 32.526 77.6511 33.0396 76.7369 33.9539C75.8226 34.8681 75.309 36.1081 75.309 37.401C75.309 38.6939 75.8226 39.9339 76.7369 40.8481C77.6511 41.7624 78.8911 42.276 80.184 42.276ZM85.059 82.7385V47.5264H75.309V82.7385H85.059ZM39.3412 38.2395L23.7705 82.7385H33.6277L37.4059 71.5894H54.2636L58.3196 82.7385H69.0056L51.7725 35.0171H39.3412V38.2395ZM51.4995 62.1026H40.0774L45.7909 43.4948L51.4995 62.1026Z" fill="#525252"/>
</svg>
