<svg width="79" height="79" viewBox="0 0 79 79" fill="none" xmlns="http://www.w3.org/2000/svg">
<path d="M48.125 36.0938C48.125 31.8675 51.555 28.4375 55.7812 28.4375H62.3438C63.214 28.4375 64.0486 28.7832 64.6639 29.3986C65.2793 30.0139 65.625 30.8485 65.625 31.7188C65.625 32.589 65.2793 33.4236 64.6639 34.0389C64.0486 34.6543 63.214 35 62.3438 35H55.7812C55.4912 35 55.213 35.1152 55.0079 35.3204C54.8027 35.5255 54.6875 35.8037 54.6875 36.0938V42.6562C54.6875 43.26 55.1775 43.75 55.7812 43.75H57.9688C62.195 43.75 65.625 47.18 65.625 51.4062V57.9688C65.625 59.9993 64.8184 61.9467 63.3825 63.3825C61.9467 64.8184 59.9993 65.625 57.9688 65.625H51.4062C50.536 65.625 49.7014 65.2793 49.0861 64.6639C48.4707 64.0486 48.125 63.214 48.125 62.3438C48.125 61.4735 48.4707 60.6389 49.0861 60.0236C49.7014 59.4082 50.536 59.0625 51.4062 59.0625H57.9688C58.2588 59.0625 58.537 58.9473 58.7421 58.7421C58.9473 58.537 59.0625 58.2588 59.0625 57.9688V51.4062C59.0625 51.1162 58.9473 50.838 58.7421 50.6329C58.537 50.4277 58.2588 50.3125 57.9688 50.3125H55.7812C53.7507 50.3125 51.8033 49.5059 50.3675 48.07C48.9316 46.6342 48.125 44.6868 48.125 42.6562V36.0938ZM42.6562 31.7188C42.6562 30.8485 42.3105 30.0139 41.6952 29.3986C41.0798 28.7832 40.2452 28.4375 39.375 28.4375C38.5048 28.4375 37.6702 28.7832 37.0548 29.3986C36.4395 30.0139 36.0938 30.8485 36.0938 31.7188V57.9688C36.0938 58.2588 35.9785 58.537 35.7734 58.7421C35.5683 58.9473 35.2901 59.0625 35 59.0625H29.5312C28.661 59.0625 27.8264 59.4082 27.2111 60.0236C26.5957 60.6389 26.25 61.4735 26.25 62.3438C26.25 63.214 26.5957 64.0486 27.2111 64.6639C27.8264 65.2793 28.661 65.625 29.5312 65.625H35C37.0306 65.625 38.978 64.8184 40.4138 63.3825C41.8496 61.9467 42.6563 59.9993 42.6562 57.9688V31.7188ZM0 14.2188V64.5312C0 68.3023 1.49804 71.9189 4.16458 74.5854C6.83111 77.252 10.4477 78.75 14.2188 78.75H64.5312C68.3023 78.75 71.9189 77.252 74.5854 74.5854C77.252 71.9189 78.75 68.3023 78.75 64.5312V14.2188C78.75 10.4477 77.252 6.83111 74.5854 4.16458C71.9189 1.49804 68.3023 0 64.5312 0H14.2188C10.4477 0 6.83111 1.49804 4.16458 4.16458C1.49804 6.83111 0 10.4477 0 14.2188ZM14.2188 6.5625H64.5312C68.7575 6.5625 72.1875 9.9925 72.1875 14.2188V64.5312C72.1875 66.5618 71.3809 68.5092 69.945 69.945C68.5092 71.3809 66.5618 72.1875 64.5312 72.1875H14.2188C12.1882 72.1875 10.2408 71.3809 8.80496 69.945C7.36914 68.5092 6.5625 66.5618 6.5625 64.5312V14.2188C6.5625 9.9925 9.9925 6.5625 14.2188 6.5625Z" fill="#525252"/>
</svg>
