<svg width="361" height="361" viewBox="0 0 361 361" fill="none" xmlns="http://www.w3.org/2000/svg">
<path d="M246.759 82.7442C245.029 82.7442 243.856 82.9548 242.637 83.2406V83.4362H242.848C243.66 85.0005 245.044 86.1437 246.067 87.5425C246.879 89.152 247.571 90.7614 248.383 92.3559L248.594 92.1302C250.008 91.1375 250.699 89.5431 250.699 87.1214C250.098 86.4144 250.008 85.7074 249.496 85.0155C248.894 84.0077 247.601 83.5114 246.789 82.7142L246.759 82.7442ZM86.7904 281.204H72.8468C72.4519 259.044 71.0969 236.912 68.7855 214.87H68.6652L47.4565 281.204H36.8521L15.7937 214.87H15.6433C13.9972 236.947 13.019 259.068 12.7102 281.204H0C0.832306 251.622 2.888 223.895 6.16708 198.024H23.465L43.5456 259.153H43.666L63.9271 198.024H80.3977C84.0378 228.348 86.1837 256.074 86.8355 281.204H86.7904ZM147.213 219.834C141.527 250.609 134.046 272.971 124.771 286.92C117.521 297.69 109.584 303.07 100.96 303.06C98.6733 303.06 95.8355 302.368 92.4461 300.984V293.553C94.1107 293.814 96.0461 293.944 98.2522 293.944C102.283 293.944 105.527 292.831 107.984 290.605C110.942 287.898 112.421 284.864 112.421 281.505C112.421 279.168 111.268 274.435 108.962 267.305L93.7096 219.834H107.398L118.333 255.332C120.81 263.395 121.837 269.025 121.416 272.224C127.433 256.2 131.62 238.736 133.976 219.834H147.213ZM332.601 281.204H293.042V198.024H306.354V270.976H332.601V281.204ZM282.663 283.235L267.381 275.714C268.744 274.581 270.023 273.327 271.216 271.953C277.724 264.332 280.973 253.036 280.963 238.064C280.963 210.538 270.158 196.77 248.549 196.76C237.959 196.76 229.686 200.255 223.73 207.244C217.252 214.885 214.013 226.141 214.013 241.013C214.003 255.643 216.881 266.373 222.647 273.202C227.901 279.369 235.838 282.452 246.458 282.452C250.429 282.452 254.064 281.961 257.363 280.978L277.293 292.591L282.708 283.235H282.663ZM233.146 264.553C229.766 259.128 228.077 250.424 228.077 238.441C228.077 217.482 234.444 207.003 247.18 207.003C253.858 207.003 258.757 209.51 261.875 214.524C265.245 219.969 266.929 228.608 266.929 240.441C266.929 261.57 260.562 272.139 247.827 272.149C241.138 272.149 236.234 269.642 233.116 264.628L233.146 264.553ZM208.207 258.16C208.207 265.24 205.62 271.036 200.445 275.548C195.291 280.061 188.352 282.317 179.628 282.317C171.46 282.317 163.623 279.73 155.967 274.571L159.532 267.411C166.11 270.71 172.077 272.354 177.431 272.344C182.425 272.344 186.351 271.241 189.209 269.035C190.641 267.962 191.797 266.563 192.582 264.955C193.366 263.346 193.757 261.574 193.722 259.785C193.722 254.821 190.262 250.609 183.975 247.074C178.138 243.871 166.481 237.192 166.481 237.192C160.134 232.574 156.975 227.626 156.975 219.488C156.975 212.729 159.331 207.289 164.044 203.168C168.768 198.996 174.884 196.916 182.395 196.926C190.107 196.926 197.126 198.981 203.454 203.093L200.25 210.252C195.205 208.025 189.76 206.848 184.245 206.793C179.984 206.793 176.704 207.826 174.408 209.891C173.252 210.856 172.319 212.061 171.675 213.422C171.031 214.783 170.691 216.268 170.678 217.773C170.678 222.707 174.198 226.949 180.696 230.559C186.607 233.793 198.55 240.637 198.55 240.637C205.063 245.224 208.297 250.113 208.297 258.205L208.207 258.16ZM349.328 170.136C341.28 169.926 335.038 170.738 329.819 172.964C328.314 173.566 325.908 173.566 325.697 175.476C326.525 176.273 326.645 177.582 327.352 178.695C328.555 180.711 330.631 183.403 332.556 184.817C334.642 186.492 336.783 188.046 338.979 189.48C342.89 191.887 347.327 193.316 351.163 195.737C353.344 197.151 355.57 198.941 357.781 200.445C358.879 201.197 359.586 202.551 361 203.032V202.732C360.308 201.829 360.098 200.52 359.421 199.513C358.413 198.505 357.405 197.602 356.412 196.61C353.463 192.714 349.938 189.291 345.958 186.457C342.739 184.26 335.7 181.192 334.376 177.507L334.181 177.296C336.377 177.101 338.994 176.303 341.1 175.702C344.514 174.799 347.643 174.995 351.178 174.107C352.782 173.686 354.387 173.215 355.991 172.693V171.791C354.186 169.986 352.832 167.534 350.967 165.849C345.756 161.305 340.205 157.166 334.361 153.47C331.202 151.455 327.201 150.161 323.877 148.446C322.674 147.845 320.658 147.544 319.966 146.536C318.161 144.34 317.108 141.422 315.83 138.805C312.88 133.073 310.136 127.238 307.602 121.311C305.797 117.37 304.699 113.444 302.488 109.834C292.109 92.7319 280.873 82.3682 263.59 72.2301C259.875 70.1243 255.423 69.2218 250.714 68.1087C248.203 67.9884 245.691 67.8079 243.194 67.7026C241.539 66.9956 239.945 65.0853 238.531 64.1678C232.815 60.5578 218.014 52.7361 213.802 63.0848C211.095 69.6129 217.818 76.0507 220.15 79.3599C221.88 81.6612 224.061 84.2935 225.264 86.8807C225.971 88.6255 226.167 90.4155 226.873 92.2355C228.468 96.6578 229.987 101.591 232.093 105.728C233.191 107.834 234.394 110.045 235.808 111.94C236.62 113.038 238.004 113.55 238.32 115.355C236.906 117.4 236.816 120.378 236.004 122.875C232.394 134.262 233.808 148.341 238.922 156.719C240.531 159.216 244.367 164.751 249.496 162.631C254.009 160.826 253.016 155.11 254.309 150.071C254.61 148.867 254.415 148.07 255.031 147.258V147.484C256.445 150.311 257.859 153.004 259.153 155.832C262.251 160.765 267.666 165.88 272.194 169.294C274.601 171.099 276.511 174.228 279.519 175.341V175.04H279.294C278.647 174.167 277.789 173.746 276.977 173.039C275.072 171.17 273.312 169.159 271.713 167.023C267.488 161.223 263.73 155.097 260.477 148.702C258.822 145.543 257.438 142.144 256.114 139.03C255.513 137.827 255.513 136.022 254.505 135.42C253.001 137.616 250.79 139.527 249.692 142.234C247.781 146.566 247.586 151.891 246.864 157.426C246.458 157.531 246.653 157.426 246.458 157.637C243.239 156.855 242.141 153.515 240.937 150.718C237.929 143.573 237.433 132.096 240.035 123.868C240.742 121.762 243.75 115.114 242.547 113.098C241.915 111.188 239.93 110.09 238.832 108.541C237.421 106.523 236.212 104.372 235.222 102.118C232.815 96.4923 231.612 90.2651 228.994 84.6395C227.791 82.0373 225.685 79.3147 223.97 76.9231C222.06 74.2156 219.954 72.3053 218.435 69.1014C217.939 68.0034 217.232 66.1834 218.029 64.98C218.24 64.1678 218.661 63.8519 219.443 63.6263C220.767 62.5433 224.482 63.9572 225.79 64.5589C229.506 66.063 232.634 67.4769 235.748 69.5828C237.162 70.5755 238.681 72.4858 240.486 72.9822H242.592C245.811 73.6892 249.436 73.1928 252.444 74.0802C257.784 75.795 262.597 78.2919 266.914 80.9994C280.218 89.495 291.037 101.358 298.276 115.385C299.48 117.701 300.006 119.822 301.104 122.229C303.21 127.192 305.812 132.201 307.948 137C310.054 141.738 312.084 146.566 315.108 150.492C316.612 152.598 322.659 153.696 325.366 154.794C327.367 155.696 330.48 156.524 332.285 157.622C335.745 159.727 339.114 162.134 342.363 164.451C344.018 165.594 349.027 168.106 349.328 170.136Z" fill="#525252"/>
</svg>
