<svg width="74" height="21" viewBox="0 0 74 21" fill="none" xmlns="http://www.w3.org/2000/svg">
<path d="M11.3319 10.6122L6.13626 7.60838C6.04837 7.56087 5.9515 7.53248 5.85196 7.52508H5.79746C5.69775 7.53322 5.60087 7.56242 5.51316 7.61076L0.312736 10.6122C0.218133 10.6687 0.139644 10.7488 0.0848591 10.8447C0.0300738 10.9406 0.000845323 11.049 0 11.1596L0.0118461 19.2475C0.0118461 19.3594 0.0687072 19.4665 0.168214 19.5188C0.215871 19.5473 0.270304 19.5624 0.325767 19.5624C0.381229 19.5624 0.435663 19.5473 0.483319 19.5188L3.5704 17.7432C3.66501 17.6867 3.7435 17.6066 3.79828 17.5107C3.85307 17.4148 3.8823 17.3063 3.88314 17.1958V13.4208C3.88314 13.1947 4.0016 12.9852 4.19588 12.8733L5.51079 12.1117C5.60653 12.0583 5.71432 12.0304 5.82384 12.0308C5.93335 12.0313 6.04093 12.0599 6.13626 12.1141L7.44881 12.8757C7.54385 12.9319 7.62281 13.0119 7.67802 13.1078C7.73323 13.2037 7.76282 13.3124 7.76391 13.4232V17.2005C7.76391 17.4243 7.88237 17.6337 8.07665 17.748L11.159 19.5188C11.2065 19.5464 11.2603 19.5609 11.3152 19.5609C11.37 19.5609 11.4239 19.5465 11.4714 19.519C11.5189 19.4915 11.5584 19.452 11.5859 19.4043C11.6134 19.3567 11.628 19.3026 11.6281 19.2475L11.6376 11.1596C11.6372 11.0495 11.6087 10.9413 11.5548 10.8455C11.5008 10.7496 11.4257 10.6693 11.3319 10.6122ZM42.48 1.77455L39.3882 0.0370157C39.3397 0.0119089 39.2858 -0.000792114 39.2312 3.82496e-05C39.1767 0.000868613 39.1231 0.0152047 39.0754 0.0417761C39.0281 0.0692173 38.9889 0.10881 38.9619 0.156492C38.9348 0.204175 38.9208 0.258231 38.9214 0.313117V8.32482C38.9211 8.36339 38.9107 8.4012 38.8914 8.43451C38.872 8.46782 38.8443 8.49546 38.811 8.5147C38.7777 8.53395 38.74 8.54412 38.7016 8.54421C38.6632 8.5443 38.6255 8.53431 38.5921 8.51523L37.289 7.76547C37.1932 7.71125 37.0851 7.68277 36.9751 7.68277C36.8651 7.68277 36.757 7.71125 36.6612 7.76547L31.4655 10.7812C31.3705 10.8374 31.2915 10.9173 31.2363 11.0133C31.1811 11.1092 31.1515 11.2178 31.1504 11.3286V17.3529C31.1504 17.579 31.2689 17.786 31.4584 17.9003L36.6588 20.9136C36.7539 20.9702 36.8623 21 36.9728 21C37.0832 21 37.1916 20.9702 37.2867 20.9136L42.4847 17.8979C42.5798 17.8417 42.6587 17.7618 42.7139 17.6658C42.7692 17.5699 42.7987 17.4613 42.7998 17.3505V2.32675C42.7986 2.21422 42.768 2.10398 42.711 2.00707C42.654 1.91016 42.5727 1.82998 42.4753 1.77455H42.48ZM38.9025 15.3725C38.9018 15.3996 38.8945 15.4262 38.8813 15.4498C38.8681 15.4735 38.8493 15.4935 38.8267 15.5082L37.0426 16.5436C37.0186 16.5565 36.9917 16.5633 36.9645 16.5633C36.9372 16.5633 36.9103 16.5565 36.8863 16.5436L35.0999 15.5082C35.0768 15.4938 35.0576 15.4739 35.0439 15.4502C35.0303 15.4265 35.0227 15.3999 35.0217 15.3725V13.3018C35.0223 13.2741 35.0297 13.2469 35.0434 13.2228C35.057 13.1987 35.0765 13.1784 35.0999 13.1637L36.8839 12.1284C36.9069 12.1135 36.9336 12.1056 36.9609 12.1056C36.9882 12.1056 37.015 12.1135 37.0379 12.1284L38.8219 13.1637C38.8693 13.1923 38.9001 13.2447 38.9001 13.3018L38.9025 15.3725ZM57.9818 10.6955L52.8169 7.68217C52.7218 7.62562 52.6134 7.59578 52.5029 7.59578C52.3925 7.59578 52.2841 7.62562 52.189 7.68217L46.9933 10.6955C46.8987 10.752 46.8203 10.8321 46.7655 10.928C46.7107 11.0239 46.6814 11.1324 46.6806 11.2429V17.2648C46.6806 17.4957 46.7991 17.7051 46.9957 17.8122L52.1606 20.7708C52.3501 20.8779 52.5871 20.8803 52.7766 20.7708L55.8992 19.0333C55.9477 19.0057 55.988 18.9658 56.0163 18.9175C56.0445 18.8693 56.0597 18.8145 56.0601 18.7585C56.0606 18.7026 56.0464 18.6475 56.019 18.5988C55.9916 18.5501 55.9519 18.5095 55.904 18.4811L50.6775 15.4678C50.6289 15.4407 50.5885 15.401 50.5606 15.3528C50.5326 15.3047 50.5182 15.2498 50.5187 15.194V13.3065C50.5187 13.1947 50.578 13.0923 50.6727 13.0328L52.3027 12.0903C52.3501 12.0622 52.4041 12.0474 52.4591 12.0474C52.5141 12.0474 52.5681 12.0622 52.6155 12.0903L54.2455 13.0304C54.3403 13.0852 54.4019 13.1899 54.4019 13.3042V14.7918C54.402 14.8469 54.4165 14.9009 54.444 14.9486C54.4716 14.9963 54.511 15.0358 54.5586 15.0633C54.6061 15.0908 54.66 15.1052 54.7148 15.1052C54.7696 15.1052 54.8235 15.0907 54.871 15.0631L57.9841 13.2423C58.0787 13.1858 58.1572 13.1057 58.212 13.0098C58.2668 12.9139 58.296 12.8054 58.2969 12.6948V11.2358C58.2969 11.012 58.1784 10.8073 57.9818 10.6883V10.6955ZM26.9214 10.6645L21.7257 7.65123C21.6296 7.59657 21.521 7.56785 21.4106 7.56785C21.3001 7.56785 21.1916 7.59657 21.0955 7.65123L15.8974 10.6645C15.8037 10.7216 15.7262 10.802 15.6722 10.8978C15.6183 10.9937 15.5898 11.1019 15.5894 11.212V17.241C15.5894 17.4671 15.7079 17.6742 15.9022 17.7884L21.0978 20.8017C21.1937 20.856 21.3018 20.8844 21.4118 20.8844C21.5217 20.8844 21.6299 20.856 21.7257 20.8017L26.9214 17.7837C27.016 17.7272 27.0945 17.6471 27.1492 17.5512C27.204 17.4553 27.2333 17.3468 27.2341 17.2362V11.212C27.2333 11.1014 27.204 10.9929 27.1492 10.897C27.0945 10.8011 27.016 10.7211 26.9214 10.6645ZM73.4906 10.4313L68.5863 7.58696C68.4286 7.49944 68.2513 7.45354 68.071 7.45354C67.8908 7.45354 67.7135 7.49944 67.5557 7.58696L62.6562 10.4313C62.5 10.523 62.3703 10.6539 62.2797 10.8112C62.1892 10.9686 62.1409 11.1469 62.1397 11.3286V17.0053C62.1397 17.3767 62.334 17.7194 62.6538 17.9051L63.938 18.6477C64.5587 18.9571 64.779 18.9571 65.0657 18.9571C65.9897 18.9571 66.5157 18.3954 66.5157 17.4195V11.807C66.5157 11.7692 66.5007 11.7328 66.474 11.706C66.4474 11.6793 66.4112 11.6642 66.3735 11.6642H65.7504C65.7127 11.6642 65.6765 11.6793 65.6499 11.706C65.6232 11.7328 65.6082 11.7692 65.6082 11.807V17.4147C65.6082 17.8479 65.1581 18.2787 64.4331 17.9146L63.0898 17.1363C63.0654 17.1239 63.045 17.1048 63.0312 17.0812C63.0173 17.0575 63.0105 17.0304 63.0116 17.003V11.331C63.0148 11.2707 63.0408 11.2247 63.0898 11.1929L67.9964 8.35576C68.0189 8.34186 68.0447 8.3345 68.071 8.3345C68.0974 8.3345 68.1232 8.34186 68.1457 8.35576L73.0428 11.1882C73.0902 11.2167 73.1187 11.2691 73.1187 11.3238V17.0006C73.118 17.0277 73.1107 17.0542 73.0975 17.0779C73.0843 17.1015 73.0655 17.1215 73.0428 17.1363L68.1433 19.9758C68.1209 19.9897 68.095 19.9971 68.0687 19.9971C68.0423 19.9971 68.0165 19.9897 67.994 19.9758L66.7384 19.2284C66.6941 19.2031 66.6523 19.2007 66.6128 19.2213C66.3802 19.3628 66.1321 19.477 65.8736 19.5617C65.7931 19.5902 65.6746 19.6331 65.921 19.7759L67.5557 20.747C67.7137 20.839 67.8851 20.8866 68.0699 20.8898C68.3471 20.8946 68.4252 20.8374 68.5863 20.747L73.4859 17.9051C73.642 17.8129 73.7715 17.6814 73.8616 17.5237C73.9518 17.3659 73.9995 17.1873 74 17.0053V11.331C74 10.9597 73.8057 10.6169 73.4906 10.4313ZM69.5814 16.1104C68.2855 16.1104 68.0012 15.7819 67.9064 15.1345C67.9007 15.1009 67.8833 15.0704 67.8572 15.0486C67.8312 15.0268 67.7982 15.015 67.7642 15.0155H67.1293C67.0916 15.0155 67.0554 15.0306 67.0288 15.0573C67.0021 15.0841 66.9871 15.1205 66.9871 15.1583C66.9871 15.9866 67.4373 16.9768 69.5814 16.9768C71.1333 16.9768 72.0217 16.3579 72.0217 15.2869C72.0217 14.2253 71.3109 13.9421 69.8018 13.7397C68.2784 13.5398 68.1244 13.4375 68.1244 13.078C68.1244 12.7805 68.257 12.3878 69.38 12.3878C70.3893 12.3878 70.7589 12.602 70.9129 13.2875C70.92 13.3198 70.9381 13.3486 70.964 13.369C70.99 13.3894 71.0221 13.4002 71.0551 13.3994H71.69C71.7097 13.3991 71.7292 13.3948 71.7471 13.3866C71.7651 13.3784 71.7811 13.3665 71.7943 13.3518C71.8195 13.321 71.833 13.2822 71.8322 13.2423C71.7327 12.0688 70.9556 11.5214 69.3871 11.5214C67.9893 11.5214 67.1601 12.1165 67.1601 13.109C67.1601 14.1872 67.9893 14.4847 69.3279 14.618C70.9319 14.7775 71.0574 15.0155 71.0574 15.3321C71.0574 15.8795 70.6168 16.1128 69.5838 16.1128L69.5814 16.1104ZM52.4307 12.9638L51.4356 13.5422C51.4177 13.5526 51.4028 13.5675 51.3924 13.5854C51.382 13.6034 51.3765 13.6238 51.3764 13.6445V14.8013C51.378 14.8457 51.3977 14.8798 51.4356 14.9036L52.4307 15.482C52.4702 15.5058 52.5112 15.5058 52.5539 15.482L53.549 14.9036C53.5676 14.8934 53.5832 14.8782 53.5941 14.8598C53.6049 14.8414 53.6106 14.8203 53.6106 14.7989V13.6398C53.6108 13.6186 53.6055 13.5977 53.5951 13.5793C53.5847 13.5609 53.5696 13.5456 53.5513 13.535L52.5563 12.9543C52.537 12.945 52.516 12.9402 52.4947 12.9402C52.4733 12.9402 52.4523 12.945 52.4331 12.9543L52.4307 12.9638Z" fill="#525252"/>
</svg>
