<svg width="160" height="160" viewBox="0 0 160 160" fill="none" xmlns="http://www.w3.org/2000/svg">
<path d="M69.6667 69.8667C69.7675 71.8909 69.1558 73.8865 67.9378 75.5064C66.7198 77.1263 64.9726 78.2682 63 78.7334C59.5199 79.7611 55.8904 80.1894 52.2667 80C51.3333 80 51.2667 79.4 51.2667 78.7334V61.7334C51.2667 61.2667 51.7333 60.4667 52 60.4667C55.8136 60.0397 59.6726 60.2879 63.4 61.2C65.2759 61.7141 66.9198 62.8537 68.0595 64.4298C69.1992 66.006 69.7662 67.9242 69.6667 69.8667Z" fill="#525252"/>
<path d="M113.333 13.3334H46.6667C37.8261 13.3334 29.3476 16.8453 23.0964 23.0965C16.8452 29.3477 13.3333 37.8262 13.3333 46.6667V113.333C13.3333 122.174 16.8452 130.652 23.0964 136.904C29.3476 143.155 37.8261 146.667 46.6667 146.667H113.333C122.174 146.667 130.652 143.155 136.904 136.904C143.155 130.652 146.667 122.174 146.667 113.333V46.6667C146.667 37.8262 143.155 29.3477 136.904 23.0965C130.652 16.8453 122.174 13.3334 113.333 13.3334ZM73.3333 86.6667C69.9687 88.8036 66.1129 90.043 62.1333 90.2667H53.2C51.3333 90.2667 51.3333 90.2667 51.3333 92.0667V107.533C51.3333 108.867 50.9333 109.267 49.6 109.267H40.8C39.5333 109.267 39.2 108.8 39.2 107.6V51.4C39.2 50.0667 39.2 49.6667 40.8667 49.6667H61.7333C65.5421 49.7699 69.2607 50.8488 72.5333 52.8C75.3596 54.3926 77.7128 56.7066 79.3525 59.5058C80.9922 62.3051 81.8598 65.4893 81.8667 68.7334C82.2523 72.2204 81.658 75.7458 80.1506 78.9137C78.6432 82.0816 76.2824 84.7665 73.3333 86.6667ZM112.8 108.667C107.002 110.926 100.655 111.367 94.6 109.933C92.7822 109.533 91.0044 109 89.2667 108.333C88.9986 108.208 88.7631 108.022 88.5782 107.791C88.3932 107.56 88.2638 107.289 88.2 107V96.9334C90.3333 97.7334 92.3333 98.6667 94.4 99.3334C97.8635 100.44 101.531 100.759 105.133 100.267C105.853 100.133 106.542 99.9111 107.2 99.6C107.591 99.4289 107.93 99.1595 108.186 98.8179C108.441 98.4764 108.604 98.0744 108.658 97.6513C108.711 97.2281 108.654 96.7983 108.492 96.4037C108.33 96.0092 108.069 95.6634 107.733 95.4C106.208 94.3443 104.577 93.4506 102.867 92.7334C100.133 91.4 97.3333 90.3334 94.7333 88.8C92.3858 87.658 90.4692 85.7892 89.2682 83.4713C88.0672 81.1533 87.6458 78.5098 88.0667 75.9334C88.4057 73.4537 89.4359 71.1195 91.0393 69.1978C92.6426 67.2761 94.7545 65.8445 97.1333 65.0667C101.421 63.6169 105.996 63.228 110.467 63.9334C112.6 63.9334 114.667 64.7334 116.8 65.1334C117.933 65.1334 118.333 66.0667 118.267 67.2V75C118.267 76.4667 117.933 76.6 116.6 76.0667C112.436 74.139 107.834 73.3565 103.267 73.8C102.62 73.8753 101.989 74.0554 101.4 74.3334C101 74.4904 100.648 74.7492 100.379 75.0841C100.11 75.419 99.9327 75.8183 99.8654 76.2427C99.798 76.667 99.8427 77.1016 99.9949 77.5034C100.147 77.9052 100.402 78.2602 100.733 78.5334C102.662 79.8178 104.684 80.9289 106.8 81.8667C109.333 83.1334 112 84.1334 114.467 85.5334C116.705 86.5519 118.559 88.2592 119.758 90.406C120.958 92.5528 121.439 95.0267 121.133 97.4667C120.923 99.9007 120.02 102.224 118.531 104.161C117.043 106.098 115.031 107.569 112.733 108.4L112.8 108.667Z" fill="#525252"/>
</svg>
