<svg width="63" height="63" viewBox="0 0 63 63" fill="none" xmlns="http://www.w3.org/2000/svg">
<path d="M31.5 14.5975C14.1061 14.5975 0 22.0079 0 31.1626C0 40.3173 14.1061 47.7316 31.5 47.7316C48.8939 47.7316 63 40.3173 63 31.1626C63 22.0079 48.8939 14.5975 31.5 14.5975ZM31.5 16.2513C48.3722 16.2513 61.3462 23.3565 61.3462 31.1626C61.3462 38.9687 48.3623 46.0779 31.5 46.0779C14.6278 46.0779 1.65375 38.9687 1.65375 31.1626C1.65375 23.3565 14.6377 16.2513 31.5 16.2513ZM27.6747 19.5352L24.4893 35.9545H28.0429L29.8777 26.5439C32.7698 26.5439 33.9668 26.4297 34.4925 26.9948C35.0378 27.5795 34.7583 28.2213 33.2581 35.9526H36.8609C38.4202 27.9594 39.1092 26.2624 37.6681 24.9374C36.2959 23.6715 33.453 23.894 30.3837 23.894L31.2303 19.5352H27.6747ZM12.7732 23.9058L9.58781 40.337H13.165L14.0116 35.9723C18.0121 35.9723 20.4986 36.2636 22.7962 34.1118C25.3378 31.7749 26.0013 27.6149 24.1881 25.5339C23.2431 24.4433 21.7212 23.9058 19.6599 23.9058H12.7732ZM40.7137 23.9058L37.5224 40.337H41.1055L41.9521 35.9723C46.1593 35.9723 48.4883 36.2164 50.7367 34.1118C53.2783 31.7749 53.9437 27.6149 52.1305 25.5339C51.1855 24.4433 49.6637 23.9058 47.6004 23.9058H40.7137ZM18.3803 26.4947C20.6148 26.5577 21.8925 27.0302 21.3531 29.8357C20.5833 33.781 17.8684 33.3735 14.5274 33.3735L15.8622 26.4986C16.7875 26.4986 17.6341 26.473 18.3803 26.4947ZM46.3227 26.4947C48.5612 26.5577 49.8251 27.0302 49.2837 29.8357C48.5041 33.8381 45.7104 33.3735 42.4581 33.3735L43.7929 26.4986C44.7241 26.4986 45.5785 26.473 46.3227 26.4947Z" fill="#525252"/>
</svg>
