<svg width="334" height="334" viewBox="0 0 334 334" fill="none" xmlns="http://www.w3.org/2000/svg">
<path d="M147.934 154.614C147.11 157.205 145.644 159.546 143.673 161.419C141.703 163.292 139.291 164.638 136.662 165.33C129.34 167.423 121.667 167.991 114.117 167C112.586 167 112.029 167 112.029 164.773V130.817C112.029 129.564 112.029 128.451 113.699 128.451C120.305 128.358 126.892 128.683 133.461 129.425C136.265 129.755 138.953 130.737 141.309 132.292C143.666 133.846 145.626 135.931 147.033 138.379C148.439 140.827 149.254 143.571 149.41 146.39C149.567 149.209 149.061 152.025 147.934 154.614Z" fill="#525252"/>
<path d="M236.583 27.8334H97.4166C78.962 27.8334 61.2632 35.1645 48.2138 48.2139C35.1644 61.2633 27.8333 78.9621 27.8333 97.4167V236.583C27.8333 255.038 35.1644 272.737 48.2138 285.786C61.2632 298.836 78.962 306.167 97.4166 306.167H236.583C255.038 306.167 272.737 298.836 285.786 285.786C298.836 272.737 306.167 255.038 306.167 236.583V97.4167C306.167 78.9621 298.836 61.2633 285.786 48.2139C272.737 35.1645 255.038 27.8334 236.583 27.8334ZM165.052 174.933C157.914 182.985 147.943 187.97 137.218 188.849C130.26 189.684 123.302 188.849 116.343 189.963H111.333V225.728C111.333 228.512 111.333 228.929 108.411 228.929H88.6491C86.5616 228.929 85.7266 228.233 85.7266 226.007V108.411C85.7266 106.602 85.7266 105.628 88.2316 105.628H126.642C135.791 105.327 144.873 107.286 153.083 111.333C159.496 114.37 164.922 119.155 168.737 125.137C172.553 131.119 174.604 138.056 174.654 145.151C175.133 150.505 174.529 155.901 172.879 161.018C171.23 166.134 168.568 170.866 165.052 174.933ZM247.717 156.98C247.717 158.928 246.603 159.346 244.933 159.346C238.029 159.148 231.159 160.38 224.754 162.964L222.945 163.799C221.16 164.368 219.628 165.54 218.613 167.114C217.597 168.688 217.161 170.567 217.378 172.428V225.589C217.378 228.79 217.378 228.929 214.177 228.929H193.998C191.076 228.929 190.797 228.929 190.797 225.728V153.501C190.797 148.213 190.797 142.924 190.102 137.636C190.102 135.827 190.102 134.992 192.467 135.131H210.977C211.43 135.051 211.894 135.069 212.34 135.185C212.785 135.3 213.2 135.511 213.556 135.801C213.913 136.092 214.203 136.456 214.406 136.869C214.609 137.281 214.721 137.733 214.734 138.193C214.734 140.976 215.708 143.898 216.126 146.264C220.301 143.342 224.337 140.141 228.79 137.497C233.829 134.614 239.545 133.125 245.351 133.183C247.021 133.183 247.856 133.183 247.856 135.548L247.717 156.98Z" fill="#525252"/>
</svg>
