<svg width="51" height="51" viewBox="0 0 51 51" fill="none" xmlns="http://www.w3.org/2000/svg">
<path d="M25.5 15.9375H15.9375M15.9375 15.9375H12.7033C10.9884 15.9375 9.23313 16.337 8.177 17.6885C7.05075 19.1314 5.84375 21.5879 5.84375 25.5C5.84375 29.41 7.05075 31.8686 8.177 33.3115C9.23313 34.663 10.9884 35.0625 12.7033 35.0625H15.9375M15.9375 15.9375V12.7033C15.9375 10.9884 16.337 9.23313 17.6885 8.177C19.1314 7.05075 21.5879 5.84375 25.5 5.84375C29.41 5.84375 31.8686 7.05075 33.3115 8.177C34.663 9.23313 35.0625 10.9884 35.0625 12.7033V15.9375M25.5 35.0625H35.0625M35.0625 35.0625H38.2946C40.0095 35.0625 41.7669 34.663 42.8209 33.3115C43.9492 31.8686 45.1562 29.4121 45.1562 25.5C45.1562 21.59 43.9493 19.1314 42.823 17.6885C41.7669 16.337 40.0095 15.9375 38.2967 15.9375H35.0625M35.0625 35.0625V38.2946C35.0625 40.0095 34.663 41.7669 33.3115 42.8209C31.8686 43.9492 29.4121 45.1562 25.5 45.1562C21.59 45.1562 19.1314 43.9493 17.6885 42.823C16.337 41.7669 15.9375 40.0095 15.9375 38.2967V35.0625M35.0625 15.9375V21.25C35.0625 22.3772 34.6147 23.4582 33.8177 24.2552C33.0207 25.0522 31.9397 25.5 30.8125 25.5H20.1875C19.0603 25.5 17.9793 25.9478 17.1823 26.7448C16.3853 27.5418 15.9375 28.6228 15.9375 29.75V35.0625" stroke="#525252" stroke-width="3" stroke-linecap="round" stroke-linejoin="round"/>
<path d="M31.875 39.3125C31.875 39.7352 31.7071 40.1406 31.4082 40.4395C31.1093 40.7383 30.7039 40.9062 30.2812 40.9062C29.8586 40.9062 29.4532 40.7383 29.1543 40.4395C28.8554 40.1406 28.6875 39.7352 28.6875 39.3125C28.6875 38.8898 28.8554 38.4844 29.1543 38.1855C29.4532 37.8867 29.8586 37.7188 30.2812 37.7188C30.7039 37.7188 31.1093 37.8867 31.4082 38.1855C31.7071 38.4844 31.875 38.8898 31.875 39.3125ZM19.125 11.6875C19.125 11.2648 19.2929 10.8594 19.5918 10.5605C19.8907 10.2617 20.2961 10.0938 20.7188 10.0938C21.1414 10.0938 21.5468 10.2617 21.8457 10.5605C22.1446 10.8594 22.3125 11.2648 22.3125 11.6875C22.3125 12.1102 22.1446 12.5156 21.8457 12.8145C21.5468 13.1133 21.1414 13.2812 20.7188 13.2812C20.2961 13.2812 19.8907 13.1133 19.5918 12.8145C19.2929 12.5156 19.125 12.1102 19.125 11.6875Z" fill="#525252"/>
</svg>
