<svg width="69" height="69" viewBox="0 0 69 69" fill="none" xmlns="http://www.w3.org/2000/svg">
<path d="M31.9211 30.0093C31.0417 30.5171 30.3326 31.2742 29.8835 32.185C29.4343 33.0958 29.2654 34.1193 29.3979 35.1261C29.5304 36.1329 29.9585 37.0778 30.6281 37.8413C31.2976 38.6049 32.1785 39.1527 33.1594 39.4156C34.1403 39.6785 35.1771 39.6447 36.1387 39.3184C37.1003 38.9921 37.9436 38.3879 38.562 37.5824C39.1803 36.7768 39.5458 35.806 39.6124 34.7927C39.679 33.7794 39.4437 32.7691 38.9361 31.8895C38.599 31.3054 38.1502 30.7934 37.6152 30.3827C37.0802 29.9721 36.4695 29.6708 35.8181 29.4962C35.1667 29.3216 34.4872 29.2771 33.8186 29.3651C33.1499 29.4531 32.5052 29.672 31.9211 30.0093ZM54.9355 35.581C54.5981 35.1958 54.2426 34.8095 53.8689 34.4224C54.1295 34.1464 54.3825 33.8713 54.6279 33.5973C59.2422 28.4108 61.1915 23.207 59.386 20.0819C57.6552 17.0833 52.5061 16.1891 46.0575 17.4426C45.4231 17.5672 44.7915 17.7071 44.1629 17.8624C44.0421 17.4484 43.9146 17.0363 43.7805 16.6261C41.5926 10.0338 38.0592 5.74713 34.4482 5.75C30.9867 5.75 27.6402 9.76638 25.5041 15.9793C25.2933 16.5926 25.0987 17.2098 24.9205 17.8308C24.5007 17.7273 24.0791 17.6314 23.6555 17.5433C16.8532 16.1489 11.3764 17.0689 9.57373 20.1998C7.84585 23.1984 9.65135 28.106 13.9667 33.0568C14.3961 33.5455 14.8369 34.0247 15.2892 34.4943C14.7545 35.0424 14.2514 35.5896 13.7799 36.1359C9.56798 41.0176 7.86598 45.8419 9.59098 48.829C11.3735 51.9168 16.7727 52.9259 23.3479 51.6321C23.8807 51.5267 24.4106 51.4079 24.9377 51.2756C25.1294 51.9484 25.3412 52.6163 25.5731 53.2795C27.7006 59.3659 31.027 63.25 34.477 63.25C38.042 63.25 41.6127 59.0726 43.7776 52.7304C43.9482 52.2282 44.1101 51.7098 44.2635 51.175C44.9439 51.3437 45.6291 51.4932 46.3191 51.6235C52.6527 52.8224 57.6811 51.8823 59.4032 48.8923C61.1829 45.8016 59.3457 40.6209 54.9355 35.581ZM11.7012 21.4245C12.811 19.4983 17.2874 18.745 23.161 19.9525C23.5366 20.0292 23.919 20.1154 24.3081 20.2113C23.7342 22.7481 23.3289 25.3201 23.0949 27.9105C20.9773 29.4007 18.9577 31.0255 17.0487 32.775C16.629 32.3399 16.2198 31.8943 15.8211 31.4381C12.121 27.2004 10.6605 23.2329 11.7012 21.4245ZM22.8764 37.8925C21.4101 36.7799 20.0445 35.6414 18.8054 34.4971C20.0416 33.3586 21.4072 32.2259 22.8735 31.1161C22.8198 32.245 22.7939 33.3749 22.7959 34.5058C22.7959 35.6366 22.8227 36.7655 22.8764 37.8925ZM22.8764 49.22C20.3847 49.7774 17.8114 49.869 15.2864 49.4903C14.5943 49.4354 13.9207 49.2396 13.3071 48.9148C12.6935 48.5899 12.1529 48.143 11.7185 47.6014C10.6691 45.7901 12.0376 41.9146 15.64 37.7401C16.0923 37.2169 16.56 36.707 17.043 36.2106C18.9523 37.9715 20.9759 39.6042 23.1006 41.0981C23.3384 43.7211 23.7475 46.3256 24.3254 48.8951C23.8462 49.0159 23.3622 49.1251 22.8735 49.2229M43.286 26.1108C42.3219 25.5032 41.3463 24.9157 40.3592 24.3484C39.3856 23.7887 38.4014 23.2492 37.4066 22.7298C39.0425 22.0403 40.711 21.4311 42.4062 20.9041C42.7879 22.6236 43.0815 24.3614 43.286 26.1108ZM27.83 16.7756C29.6585 11.4569 32.3667 8.20813 34.454 8.20813C36.6764 8.20525 39.5629 11.7099 41.4517 17.3995C41.5744 17.7713 41.6894 18.1451 41.7967 18.5208C39.3172 19.2894 36.8912 20.221 34.5345 21.3095C32.1859 20.207 29.7653 19.2647 27.2895 18.4891C27.4562 17.9141 27.6364 17.343 27.83 16.7756ZM26.68 20.8696C28.3684 21.3994 30.0285 22.0155 31.6537 22.7154C29.6374 23.7542 27.6747 24.886 25.7657 26.1108C25.9957 24.2765 26.3034 22.5199 26.68 20.8696ZM25.7686 42.8921C26.7212 43.5035 27.6881 44.091 28.6695 44.6545C29.67 45.2295 30.6829 45.7815 31.7084 46.3105C30.0712 47.0341 28.3976 47.6722 26.6944 48.2224C26.298 46.463 25.9891 44.685 25.7686 42.895M41.4546 51.9398C40.6919 54.3759 39.4852 56.6499 37.8954 58.6471C37.5028 59.2196 36.9973 59.7056 36.4099 60.0755C35.8226 60.4453 35.1657 60.6911 34.4799 60.7976C32.384 60.7976 29.7131 57.6782 27.8961 52.4716C27.6814 51.8564 27.484 51.2354 27.3039 50.6086C29.7916 49.8072 32.2218 48.837 34.5776 47.7049C36.9549 48.8008 39.4009 49.741 41.9002 50.5195C41.7622 50.9968 41.6137 51.4702 41.4546 51.9398ZM42.4954 48.1333C40.7772 47.598 39.0866 46.9782 37.4296 46.276C38.4052 45.7643 39.3875 45.2228 40.3765 44.6516C41.3923 44.0651 42.3813 43.4643 43.3435 42.849C43.1521 44.6239 42.869 46.3876 42.4954 48.1333ZM43.7805 34.4971C43.7805 36.2432 43.7259 37.9874 43.6166 39.7296C42.1964 40.6918 40.7071 41.6233 39.1489 42.5241C37.5964 43.4192 36.0659 44.2395 34.5575 44.9851C32.9724 44.2261 31.418 43.4077 29.8942 42.5299C28.3801 41.6578 26.9004 40.7292 25.4552 39.744C25.3211 37.9998 25.254 36.2538 25.254 34.5058C25.254 32.7597 25.3191 31.0145 25.4495 29.2704C28.3386 27.2956 31.3738 25.5435 34.5287 24.0293C36.0927 24.7902 37.6289 25.6057 39.1374 26.4759C40.6515 27.346 42.1369 28.2651 43.5936 29.233C43.7182 30.9848 43.7805 32.7395 43.7805 34.4971ZM46.529 19.8548C52.0547 18.7824 56.2177 19.504 57.2614 21.3124C58.374 23.2386 56.7812 27.4879 52.7936 31.9671C52.5732 32.2144 52.3451 32.4626 52.1094 32.7118C50.1676 30.9556 48.1081 29.3342 45.9454 27.8587C45.7279 25.2969 45.3389 22.7526 44.781 20.2429C45.3751 20.0972 45.9578 19.9678 46.529 19.8548ZM46.1552 31.0241C47.615 32.0885 49.018 33.2285 50.3585 34.4396C49.0241 35.67 47.6258 36.8292 46.1696 37.9126C46.2137 36.7741 46.2357 35.6356 46.2357 34.4971C46.2357 33.3395 46.2089 32.1818 46.1552 31.0241ZM57.2786 47.6675C56.2321 49.4816 52.1956 50.2378 46.7762 49.2143C46.1552 49.0973 45.5189 48.9574 44.8672 48.7945C45.412 46.2524 45.7837 43.6762 45.9799 41.0838C48.1381 39.5826 50.1909 37.9352 52.1237 36.1531C52.463 36.5039 52.785 36.8527 53.0897 37.1996C54.8195 39.0773 56.1871 41.2587 57.1234 43.6339C57.423 44.2601 57.5913 44.941 57.618 45.6346C57.6447 46.3283 57.5292 47.0201 57.2786 47.6675Z" fill="#525252"/>
</svg>
