<svg width="299" height="299" viewBox="0 0 299 299" fill="none" xmlns="http://www.w3.org/2000/svg">
<path fill-rule="evenodd" clip-rule="evenodd" d="M149.5 18.6875C175.372 18.6875 200.664 26.3595 222.176 40.7334C243.688 55.1072 260.454 75.5374 270.355 99.4402C280.256 123.343 282.846 149.645 277.799 175.02C272.752 200.395 260.293 223.704 241.998 241.998C223.704 260.293 200.395 272.752 175.02 277.799C149.645 282.846 123.343 280.256 99.4402 270.355C75.5374 260.454 55.1072 243.688 40.7334 222.176C26.3595 200.664 18.6875 175.372 18.6875 149.5C18.6875 114.806 32.4695 81.5337 57.0016 57.0016C81.5337 32.4695 114.806 18.6875 149.5 18.6875Z" fill="#525252"/>
<path d="M231.557 74.6752C225.633 51.4467 187.109 43.8409 150.649 56.7539C127.816 64.4254 106.72 76.5261 88.5694 92.363C68.4897 111.144 65.2848 127.495 66.6022 134.326C71.2741 158.433 104.286 174.186 117.862 185.875V185.941C113.863 187.912 84.5609 202.759 77.6839 217.896C70.4519 233.893 78.8332 245.367 84.3927 246.909C92.7397 248.918 101.506 248.264 109.463 245.038C117.419 241.813 124.166 236.177 128.757 228.922C132.554 223.045 134.929 216.364 135.695 209.41C136.46 202.455 135.595 195.418 133.167 188.856C139.705 187.185 146.505 186.795 153.191 187.707C176.139 190.388 180.643 204.712 179.783 210.711C179.379 212.846 178.519 214.869 177.263 216.643C176.007 218.416 174.384 219.899 172.504 220.989C170.897 221.989 170.402 222.325 170.542 223.073C170.738 224.147 171.476 224.11 172.85 223.876C176.299 222.79 179.337 220.685 181.566 217.838C183.794 214.99 185.108 211.535 185.333 207.926C185.885 193.911 172.42 178.157 148.575 178.559C141.649 178.355 134.737 179.302 128.121 181.362L127.112 180.241C112.368 164.515 85.1216 153.387 86.2708 132.242C86.6913 124.552 89.3636 104.314 138.596 79.7582C178.961 59.6411 211.272 65.182 216.859 77.4503C224.839 94.9792 199.592 127.542 157.676 132.242C153.043 133.183 148.258 133.068 143.675 131.907C139.093 130.745 134.831 128.567 131.205 125.533C129 123.104 128.673 123.001 127.851 123.45C126.514 124.188 127.365 126.337 127.851 127.608C129.456 130.5 131.623 133.043 134.223 135.087C136.824 137.131 139.807 138.635 142.997 139.512C159.477 143.087 176.665 141.388 192.126 134.653C217.551 124.851 237.378 97.5207 231.557 74.6752ZM123.506 193.07C125.352 199.469 125.258 206.272 123.235 212.617C123.017 213.277 122.777 213.931 122.515 214.579C122.254 215.227 121.97 215.85 121.665 216.448C120.082 219.659 118.046 222.627 115.62 225.259C108.023 233.547 97.3992 236.687 92.8488 234.042C87.934 231.192 90.3914 219.503 99.2026 210.188C105.975 203.496 113.78 197.937 122.319 193.724L123.506 193.07Z" fill="#101010"/>
</svg>
