<svg width="121" height="121" viewBox="0 0 121 121" fill="none" xmlns="http://www.w3.org/2000/svg">
<path d="M92.0104 18.9062H28.9896C23.4207 18.9062 18.9062 23.4207 18.9062 28.9896V92.0104C18.9062 97.5793 23.4207 102.094 28.9896 102.094H92.0104C97.5793 102.094 102.094 97.5793 102.094 92.0104V28.9896C102.094 23.4207 97.5793 18.9062 92.0104 18.9062Z" stroke="#525252" stroke-width="8" stroke-linecap="round" stroke-linejoin="round"/>
<path d="M86.9687 56.7188H76.8854C75.5483 56.7188 74.2659 57.2499 73.3204 58.1954C72.3749 59.1409 71.8437 60.4233 71.8437 61.7604V66.8021C71.8437 68.1392 72.3749 69.4216 73.3204 70.3671C74.2659 71.3126 75.5483 71.8437 76.8854 71.8437H81.9271C83.2642 71.8437 84.5466 72.3749 85.4921 73.3204C86.4376 74.2659 86.9687 75.5483 86.9687 76.8854V81.9271C86.9687 83.2642 86.4376 84.5466 85.4921 85.4921C84.5466 86.4376 83.2642 86.9687 81.9271 86.9687H71.8437M47.8958 56.7188V86.9687M37.8125 56.7188H57.9792" stroke="#525252" stroke-width="8" stroke-linecap="round" stroke-linejoin="round"/>
</svg>
